<?xml version="1.0" encoding="UTF-8" standalone="no"?>
<svg
   xmlns:dc="http://purl.org/dc/elements/1.1/"
   xmlns:cc="http://creativecommons.org/ns#"
   xmlns:rdf="http://www.w3.org/1999/02/22-rdf-syntax-ns#"
   xmlns:svg="http://www.w3.org/2000/svg"
   xmlns="http://www.w3.org/2000/svg"
   xmlns:sodipodi="http://sodipodi.sourceforge.net/DTD/sodipodi-0.dtd"
   xmlns:inkscape="http://www.inkscape.org/namespaces/inkscape"
   version="1.1"
   id="svg2"
   xml:space="preserve"
   width="612.66669"
   height="335.66534"
   viewBox="0 0 612.66668 335.66535"
   sodipodi:docname="flat-design-school.svg"
   inkscape:version="1.0.2 (e86c870879, 2021-01-15)"><metadata
     id="metadata8"><rdf:RDF><cc:Work
         rdf:about=""><dc:format>image/svg+xml</dc:format><dc:type
           rdf:resource="http://purl.org/dc/dcmitype/StillImage" /><dc:title></dc:title></cc:Work></rdf:RDF></metadata><defs
     id="defs6"><clipPath
       clipPathUnits="userSpaceOnUse"
       id="clipPath22"><path
         d="M 0,500 H 499.999 V 0 H 0 Z"
         id="path20" /></clipPath><clipPath
       clipPathUnits="userSpaceOnUse"
       id="clipPath54"><path
         d="M 51.4457,319.256 H 127.012 V 182.193 H 51.4457 Z"
         id="path52" /></clipPath><clipPath
       clipPathUnits="userSpaceOnUse"
       id="clipPath70"><path
         d="M 338.761,318.652 H 439.719 V 161.882 H 338.761 Z"
         id="path68" /></clipPath><clipPath
       clipPathUnits="userSpaceOnUse"
       id="clipPath86"><path
         d="M 156.458,229.439 H 313.589 V 131.517 H 156.458 Z"
         id="path84" /></clipPath><clipPath
       clipPathUnits="userSpaceOnUse"
       id="clipPath222"><path
         d="m 192.955,338.63 h 98.466 v -58.962 h -98.466 z"
         id="path220" /></clipPath><clipPath
       clipPathUnits="userSpaceOnUse"
       id="clipPath302"><path
         d="m 82.337,170.135 121.55,-0.374 c 0,0 2.499,-5.276 11.666,-5.353 v 0 c 9.166,-0.078 11.754,5.155 11.754,5.155 v 0 l 121.539,-1.684 c 0,0 -22.862,112.967 -22.977,114.194 v 0 l -109.257,-3.459 -0.241,-17.473 0.055,17.474 -109.183,5.308 C 107.106,282.698 82.337,170.135 82.337,170.135"
         id="path300" /></clipPath><clipPath
       clipPathUnits="userSpaceOnUse"
       id="clipPath310"><path
         d="m 203.455,296.254 h 24.967 V 153.756 h -24.967 z"
         id="path308" /></clipPath><clipPath
       clipPathUnits="userSpaceOnUse"
       id="clipPath326"><path
         d="M 0,500 H 499.999 V 0 H 0 Z"
         id="path324" /></clipPath><clipPath
       clipPathUnits="userSpaceOnUse"
       id="clipPath342"><path
         d="M 113.787,294.107 C 111.957,283.208 89.704,186.965 89.704,186.965 v 0 c 0,0 67.978,9.625 125.89,-6.668 v 0 c 60.388,15.293 126.171,4.535 126.171,4.535 v 0 c 0,0 -20.622,96.606 -22.267,107.534 v 0 c -46.011,24.661 -98.939,-9.305 -102.964,-11.969 v 0 c -2.974,2.042 -32.965,22.024 -67.304,22.026 v 0 c -11.61,10e-4 -23.713,-2.283 -35.443,-8.316"
         id="path340" /></clipPath><clipPath
       clipPathUnits="userSpaceOnUse"
       id="clipPath350"><path
         d="m 211.313,307.865 h 8.649 v -146.54 h -8.649 z"
         id="path348" /></clipPath><clipPath
       clipPathUnits="userSpaceOnUse"
       id="clipPath366"><path
         d="M 0,500 H 499.999 V 0 H 0 Z"
         id="path364" /></clipPath><clipPath
       clipPathUnits="userSpaceOnUse"
       id="clipPath814"><path
         d="M 0,500 H 499.999 V 0 H 0 Z"
         id="path812" /></clipPath></defs><sodipodi:namedview
     pagecolor="#ffffff"
     bordercolor="#666666"
     borderopacity="1"
     objecttolerance="10"
     gridtolerance="10"
     guidetolerance="10"
     inkscape:pageopacity="0"
     inkscape:pageshadow="2"
     inkscape:window-width="1680"
     inkscape:window-height="988"
     id="namedview4"
     inkscape:document-rotation="0"
     showgrid="false"
     height="666.66534px"
     inkscape:zoom="1.1025"
     inkscape:cx="262.04532"
     inkscape:cy="333.33334"
     inkscape:window-x="1595"
     inkscape:window-y="-5"
     inkscape:window-maximized="1"
     inkscape:current-layer="g10" /><g
     id="g10"
     inkscape:groupmode="layer"
     inkscape:label="2411321"
     transform="matrix(1.3333333,0,0,-1.3333333,0,666.66667)"><g
       id="g12"
       transform="translate(261.34938,484.36763)"><path
         d="M 0,0 -0.141,1.14 -5.498,15.175 -7.145,0.272 -7.003,-0.87 Z"
         style="fill:#ff965f;fill-opacity:1;fill-rule:nonzero;stroke:none"
         id="path14" /></g><g
       id="g16"
       transform="translate(-19.04762,123.80953)"><g
         id="g18"
         clip-path="url(#clipPath22)"><g
           id="g24"
           transform="translate(290.3033,280.6514)"><path
             d="M 0,0 C 0.241,-1.943 -1.141,-3.715 -3.085,-3.955 -5.028,-4.196 -6.8,-2.814 -7.04,-0.871 l -0.334,2.702 c -0.241,1.945 1.14,3.715 3.084,3.956 1.944,0.24 3.716,-1.14 3.956,-3.085 z"
             style="fill:#7db4d9;fill-opacity:1;fill-rule:nonzero;stroke:none"
             id="path26" /></g><g
           id="g28"
           transform="translate(289.7886,284.8154)"><path
             d="m 0,0 -7.041,-0.871 -9.514,76.888 7.04,0.871 z"
             style="fill:#ff965f;fill-opacity:1;fill-rule:nonzero;stroke:none"
             id="path30" /></g><g
           id="g32"
           transform="translate(289.7886,284.8154)"><path
             d="m 0,0 -3.396,-0.42 -9.513,76.888 3.394,0.42 z"
             style="fill:#ea6d30;fill-opacity:1;fill-rule:nonzero;stroke:none"
             id="path34" /></g><g
           id="g36"
           transform="translate(287.2691,284.5039)"><path
             d="m 0,0 -1.751,-0.217 -9.515,76.888 1.751,0.217 z"
             style="fill:#7db4d9;fill-opacity:1;fill-rule:nonzero;stroke:none"
             id="path38" /></g><g
           id="g40"
           transform="translate(290.146,281.9248)"><path
             d="M 0,0 -7.04,-0.872 -7.398,2.02 -0.357,2.891 Z"
             style="fill:#7db4d9;fill-opacity:1;fill-rule:nonzero;stroke:none"
             id="path42" /></g><g
           id="g44"
           transform="translate(276.0708,372.7559)"><path
             d="M 0,0 -1.172,2.977 -1.558,-0.194 Z"
             style="fill:#214b63;fill-opacity:1;fill-rule:nonzero;stroke:none"
             id="path46" /></g><g
           id="g48"><g
             id="g50" /><g
             id="g62"><g
               clip-path="url(#clipPath54)"
               opacity="0.509995"
               id="g60"><g
                 transform="translate(98.6441,182.1933)"
                 id="g58"><path
                   d="m 0,0 c -2.451,3.084 -4.981,6.239 -8.378,8.234 -3.397,1.995 -7.904,2.603 -11.213,0.465 -2.275,-1.47 -3.731,-4.034 -6.138,-5.275 -2.586,-1.333 -6.026,-0.734 -8.008,1.396 -1.982,2.129 -2.334,5.604 -0.819,8.087 2.22,-1.358 5.125,1.47 4.741,4.043 -0.385,2.573 -2.71,4.387 -5.017,5.59 -2.307,1.203 -4.869,2.148 -6.556,4.129 -1.688,1.98 -1.967,5.481 0.229,6.876 0.574,0.364 1.251,0.546 1.811,0.931 2.479,1.707 0.977,5.737 -1.351,7.644 -2.328,1.907 -5.447,3.338 -6.307,6.222 -0.808,2.712 1.03,5.786 3.682,6.775 2.651,0.989 5.771,0.107 7.873,-1.788 0.722,-0.651 1.508,-1.475 2.473,-1.352 0.702,0.088 1.233,0.666 1.638,1.245 3.403,4.867 1.558,12.541 -3.686,15.329 1.231,3.222 4.841,5.351 8.257,4.869 3.416,-0.481 6.296,-3.525 6.588,-6.963 0.244,-2.875 -0.979,-6.273 1.024,-8.35 0.784,-0.812 1.901,-1.189 2.907,-1.701 3.479,-1.773 5.848,-5.546 5.932,-9.45 5.309,2.968 7.221,10.698 3.908,15.799 4.944,0.257 7.092,7.085 4.923,11.535 -2.17,4.45 -6.783,7.051 -10.891,9.813 -2.324,1.562 -4.815,3.808 -4.469,6.586 0.444,3.559 5.335,5.514 5.266,9.1 -0.048,2.531 -2.531,4.186 -4.369,5.926 -4.979,4.716 -6.008,13.051 -2.328,18.837 0.745,1.171 2.08,2.358 3.358,1.815 1.023,-0.434 1.337,-1.721 2.107,-2.523 1.691,-1.761 4.874,-0.444 6.074,1.684 1.201,2.127 1.212,4.703 1.897,7.048 0.686,2.344 2.61,4.75 5.036,4.464 3.224,-0.381 3.999,-4.711 3.647,-7.939 -0.352,-3.227 -0.548,-7.342 2.357,-8.793 3.297,-1.647 6.691,1.953 8.634,5.085 0.384,-3.189 4.685,-3.703 7.882,-4.015 3.198,-0.311 7.139,-3.445 5.088,-5.918"
                   style="fill:#7db4d9;fill-opacity:1;fill-rule:nonzero;stroke:none"
                   id="path56" /></g></g></g></g><g
           id="g64"><g
             id="g66" /><g
             id="g78"><g
               clip-path="url(#clipPath70)"
               opacity="0.509995"
               id="g76"><g
                 transform="translate(382.5904,164.8623)"
                 id="g74"><path
                   d="m 0,0 c 6.354,5.96 16.634,7.241 24.258,3.024 3.757,-2.078 7.047,-5.384 11.305,-5.935 4.39,-0.568 8.969,2.428 10.207,6.678 1.238,4.25 -1.016,9.236 -5.025,11.114 -0.568,0.266 -1.183,0.489 -1.616,0.944 -1.12,1.175 -0.362,3.259 0.995,4.15 1.357,0.891 3.062,0.998 4.65,1.33 6.422,1.342 11.642,7.158 12.287,13.686 0.643,6.529 -3.34,13.252 -9.375,15.823 -0.195,6.019 8.36,10.246 6.905,16.088 -0.577,2.319 -2.744,4.005 -5.07,4.548 -3.58,0.835 -7.604,-0.877 -9.484,-4.034 -1.042,-1.75 -1.528,-3.932 -3.141,-5.174 -3.476,-2.679 -8.676,2.011 -8.112,6.363 0.565,4.352 4.331,7.48 7.846,10.107 1.132,0.846 2.301,1.726 2.981,2.964 2.554,4.645 -3.187,10.179 -1.993,15.345 1.564,6.76 12.524,6.373 15.837,12.469 2.497,4.595 -0.82,10.361 -5.074,13.403 -4.254,3.043 -9.484,4.662 -13.326,8.21 -0.638,0.588 -1.246,1.25 -1.536,2.068 -0.721,2.038 0.712,4.124 1.538,6.122 2.303,5.575 -1.099,12.938 -6.976,14.296 -5.877,1.357 -12.363,-4.407 -11.236,-10.333 0.36,-1.898 1.305,-4.053 0.134,-5.589 -1.864,-2.449 -5.507,0.13 -8.385,1.217 -3.217,1.216 -7.185,-0.018 -9.145,-2.843 -1.961,-2.825 -1.727,-6.974 0.536,-9.561 -4.483,-2.478 -9.876,-2.624 -14.671,-4.428 -4.793,-1.804 -9.35,-6.651 -7.765,-11.522 0.656,-2.017 2.256,-3.613 2.959,-5.613 1.379,-3.921 -1.724,-8.726 -5.864,-9.083 -4.141,-0.357 -8.021,3.845 -7.334,7.944 0.614,3.67 4.161,7.023 2.868,10.512 -1.014,2.737 -4.695,3.634 -7.429,2.614 -2.735,-1.019 -4.722,-3.365 -6.578,-5.617"
                   style="fill:#7db4d9;fill-opacity:1;fill-rule:nonzero;stroke:none"
                   id="path72" /></g></g></g></g><g
           id="g80"><g
             id="g82" /><g
             id="g94"><g
               clip-path="url(#clipPath86)"
               opacity="0.509995"
               id="g92"><g
                 transform="translate(162.7832,195.8799)"
                 id="g90"><path
                   d="m 0,0 c 5.359,-6.869 5.704,-17.223 0.813,-24.433 -2.41,-3.552 -6.001,-6.53 -6.936,-10.72 -0.963,-4.321 1.605,-9.153 5.725,-10.77 4.12,-1.618 9.291,0.175 11.524,3.996 0.317,0.542 0.594,1.134 1.086,1.525 1.273,1.008 3.279,0.065 4.043,-1.368 0.765,-1.433 0.716,-3.139 0.903,-4.752 0.755,-6.517 6.073,-12.243 12.516,-13.476 6.444,-1.233 13.5,2.124 16.609,7.901 6.01,-0.351 9.444,-9.255 15.395,-8.336 2.361,0.366 4.237,2.371 4.989,4.639 1.156,3.487 -0.184,7.65 -3.158,9.81 -1.648,1.195 -3.777,1.878 -4.868,3.597 -2.352,3.704 2.79,8.458 7.072,7.501 4.283,-0.956 7.057,-4.991 9.354,-8.73 0.74,-1.203 1.51,-2.447 2.681,-3.238 4.396,-2.963 10.427,2.252 15.463,0.594 6.591,-2.169 5.211,-13.049 10.983,-16.901 4.349,-2.903 10.391,-0.122 13.807,3.838 3.416,3.96 5.502,9.021 9.383,12.527 0.645,0.581 1.36,1.127 2.2,1.342 2.095,0.533 4.042,-1.084 5.958,-2.087 5.342,-2.8 12.984,-0.078 14.869,5.651 1.884,5.73 -3.268,12.711 -9.272,12.127 -1.922,-0.187 -4.154,-0.932 -5.579,0.372 -2.268,2.079 0.63,5.473 1.974,8.241 1.502,3.093 0.633,7.157 -2.003,9.365 -2.635,2.208 -6.788,2.352 -9.571,0.333 -2.06,4.689 -1.716,10.073 -3.08,15.012 -1.362,4.937 -5.775,9.915 -10.77,8.778 -2.068,-0.471 -3.802,-1.92 -5.858,-2.439 -4.029,-1.016 -8.533,2.509 -8.513,6.664 0.019,4.156 4.556,7.639 8.576,6.584 3.599,-0.945 6.616,-4.781 10.208,-3.81 2.818,0.762 4.045,4.346 3.277,7.162 -0.767,2.816 -2.924,5.007 -4.997,7.061"
                   style="fill:#7db4d9;fill-opacity:1;fill-rule:nonzero;stroke:none"
                   id="path88" /></g></g></g></g><g
           id="g96"
           transform="translate(396.6411,247.5703)"><path
             d="m 0,0 c 2.07,5.93 5.283,11.458 9.411,16.192 1.306,-1.835 2.612,-3.67 3.918,-5.504 -0.603,5.265 1.775,10.522 5.246,14.527 3.472,4.004 7.965,6.963 12.397,9.869 1.47,-1.997 3.217,-3.791 5.174,-5.315 2.244,2.12 0.104,6.303 1.904,8.811 0.569,0.793 1.456,1.287 2.32,1.741 10,5.261 20.982,8.645 32.207,9.928 2.143,0.244 4.554,0.334 6.181,-1.081 2.166,-1.882 1.776,-5.301 1.093,-8.088 -0.702,-2.854 -1.518,-5.681 -2.448,-8.469 -1.103,-3.309 -2.85,-7.011 -6.249,-7.796 -1.475,-0.34 -3.023,-0.046 -4.527,-0.224 -1.504,-0.177 -3.144,-1.104 -3.279,-2.611 2.286,-1.024 4.921,-1.251 7.348,-0.633 -2.43,-4.024 -5.197,-7.845 -8.261,-11.41 -2.924,-3.402 -6.883,-6.84 -11.308,-6.1 -1.829,0.306 -4.107,1.168 -5.238,-0.302 -0.959,-1.246 0.07,-3.203 1.545,-3.748 1.475,-0.546 3.112,-0.13 4.628,0.29 -4.626,-6.008 -9.738,-11.642 -15.267,-16.83 -2.08,-1.951 -4.328,-3.9 -7.084,-4.635 -2.766,-0.736 -5.975,-0.24 -8.265,-1.958 0.893,-0.776 1.785,-1.553 2.678,-2.331 -0.071,-1.785 -2.222,-2.599 -3.974,-2.95 -7.349,-1.468 -14.767,-2.592 -22.221,-3.367 -0.421,-0.044 -0.87,-0.081 -1.244,0.117 -0.685,0.364 -0.772,1.295 -0.764,2.071 0.092,9.731 1.284,19.452 3.548,28.916"
             style="fill:#4180a9;fill-opacity:1;fill-rule:nonzero;stroke:none"
             id="path98" /></g><g
           id="g100"
           transform="translate(468.564,289.6934)"><path
             d="m 0,0 c -10.714,-8.408 -21.433,-16.822 -31.69,-25.785 -10.097,-8.821 -19.566,-18.25 -28.405,-28.331 -5.116,-5.836 -10.065,-11.816 -15.013,-17.794 -0.303,-0.366 0.3,-0.793 0.603,-0.428 8.713,10.526 17.442,21.069 27.054,30.797 9.398,9.511 19.541,18.25 29.914,26.675 5.948,4.831 11.976,9.563 18.005,14.293 C 0.843,-0.279 0.374,0.294 0,0"
             style="fill:#ffffff;fill-opacity:1;fill-rule:nonzero;stroke:none"
             id="path102" /></g><g
           id="g104"
           transform="translate(448.7583,287.4526)"><path
             d="m 0,0 c -2.021,-5.41 -3.347,-11.015 -3.967,-16.756 -0.051,-0.474 0.685,-0.548 0.736,-0.074 0.613,5.679 1.925,11.221 3.924,16.572 C 0.859,0.187 0.167,0.447 0,0"
             style="fill:#ffffff;fill-opacity:1;fill-rule:nonzero;stroke:none"
             id="path106" /></g><g
           id="g108"
           transform="translate(450.3472,262.5557)"><path
             d="m 0,0 c -5.846,-1.77 -11.869,-2.739 -17.974,-2.918 -0.474,-0.014 -0.354,-0.744 0.116,-0.73 6.173,0.18 12.246,1.183 18.157,2.972 C 0.754,-0.539 0.449,0.136 0,0"
             style="fill:#ffffff;fill-opacity:1;fill-rule:nonzero;stroke:none"
             id="path110" /></g><g
           id="g112"
           transform="translate(419.3814,265.2456)"><path
             d="m 0,0 c -1.404,-6.29 -1.807,-12.707 -1.219,-19.123 0.043,-0.475 0.774,-0.357 0.731,0.116 C -1.07,-12.654 -0.654,-6.3 0.735,-0.074 0.839,0.39 0.103,0.459 0,0"
             style="fill:#ffffff;fill-opacity:1;fill-rule:nonzero;stroke:none"
             id="path114" /></g><g
           id="g116"
           transform="translate(428.1206,237.8623)"><path
             d="m 0,0 c -6.138,-2.547 -12.711,-3.571 -19.333,-3.017 -0.475,0.039 -0.549,-0.696 -0.073,-0.736 6.741,-0.564 13.457,0.484 19.705,3.076 C 0.739,-0.494 0.439,0.182 0,0"
             style="fill:#ffffff;fill-opacity:1;fill-rule:nonzero;stroke:none"
             id="path118" /></g><g
           id="g120"
           transform="translate(402.3706,210.9404)"><path
             d="m 0,0 c 3.656,3.683 8.021,6.658 12.785,8.717 0.319,-1.833 0.64,-3.666 0.959,-5.5 1.427,4.14 5.073,7.212 9.088,8.96 4.015,1.748 8.418,2.353 12.758,2.94 0.385,-2.013 1.048,-3.972 1.963,-5.806 2.427,0.781 2.323,4.662 4.558,5.889 0.707,0.389 1.545,0.441 2.351,0.472 9.328,0.357 18.721,-1.032 27.546,-4.076 1.684,-0.581 3.513,-1.374 4.222,-3.008 0.945,-2.175 -0.564,-4.585 -2.068,-6.419 -1.539,-1.878 -3.155,-3.693 -4.842,-5.441 -2.001,-2.074 -4.623,-4.211 -7.435,-3.584 -1.222,0.271 -2.272,1.043 -3.455,1.446 -1.185,0.403 -2.738,0.297 -3.375,-0.778 1.34,-1.579 3.222,-2.687 5.253,-3.091 -3.246,-2.133 -6.67,-3.996 -10.225,-5.562 -3.392,-1.493 -7.568,-2.646 -10.604,-0.517 -1.253,0.879 -2.645,2.334 -4.012,1.641 -1.159,-0.588 -1.089,-2.413 -0.184,-3.345 0.905,-0.932 2.275,-1.205 3.554,-1.432 -5.59,-2.83 -11.407,-5.209 -17.378,-7.107 -2.246,-0.712 -4.616,-1.365 -6.933,-0.929 -2.324,0.435 -4.539,1.949 -6.858,1.485 0.389,-0.897 0.777,-1.795 1.165,-2.692 -0.688,-1.305 -2.582,-1.147 -4.013,-0.784 -6.002,1.525 -11.932,3.331 -17.765,5.409 -0.329,0.117 -0.678,0.25 -0.885,0.531 -0.381,0.516 -0.114,1.24 0.168,1.815 3.536,7.222 7.889,14.043 12.948,20.291"
             style="fill:#4180a9;fill-opacity:1;fill-rule:nonzero;stroke:none"
             id="path122" /></g><g
           id="g124"
           transform="translate(470.9956,216.7119)"><path
             d="m 0,0 c -10.982,-2.45 -21.971,-4.902 -32.813,-7.929 -10.668,-2.977 -21.087,-6.633 -31.268,-10.998 -5.895,-2.527 -11.714,-5.221 -17.533,-7.914 -0.357,-0.165 -0.058,-0.699 0.298,-0.534 10.246,4.742 20.508,9.491 31.14,13.317 10.396,3.741 21.072,6.641 31.806,9.225 6.155,1.482 12.335,2.861 18.515,4.239 C 0.528,-0.508 0.384,0.086 0,0"
             style="fill:#ffffff;fill-opacity:1;fill-rule:nonzero;stroke:none"
             id="path126" /></g><g
           id="g128"
           transform="translate(455.4331,222.0996)"><path
             d="m 0,0 c -3.434,-3.313 -6.42,-7.019 -8.928,-11.078 -0.207,-0.335 0.315,-0.651 0.522,-0.317 2.48,4.015 5.434,7.678 8.831,10.956 C 0.707,-0.167 0.283,0.273 0,0"
             style="fill:#ffffff;fill-opacity:1;fill-rule:nonzero;stroke:none"
             id="path130" /></g><g
           id="g132"
           transform="translate(447.7456,202.9736)"><path
             d="m 0,0 c -4.988,0.764 -9.824,2.188 -14.438,4.229 -0.36,0.16 -0.53,-0.428 -0.174,-0.585 C -9.946,1.578 -5.062,0.162 -0.019,-0.61 0.37,-0.67 0.384,-0.059 0,0"
             style="fill:#ffffff;fill-opacity:1;fill-rule:nonzero;stroke:none"
             id="path134" /></g><g
           id="g136"
           transform="translate(425.6206,216.0137)"><path
             d="m 0,0 c -3.288,-4.188 -5.875,-8.829 -7.724,-13.821 -0.136,-0.37 0.451,-0.542 0.586,-0.175 1.83,4.944 4.406,9.532 7.659,13.679 C 0.764,-0.009 0.239,0.306 0,0"
             style="fill:#ffffff;fill-opacity:1;fill-rule:nonzero;stroke:none"
             id="path138" /></g><g
           id="g140"
           transform="translate(422.3775,192.4853)"><path
             d="M 0,0 C -5.483,0.29 -10.748,1.867 -15.486,4.641 -15.826,4.84 -16.145,4.317 -15.804,4.119 -10.979,1.296 -5.6,-0.316 -0.019,-0.61 0.375,-0.631 0.393,-0.021 0,0"
             style="fill:#ffffff;fill-opacity:1;fill-rule:nonzero;stroke:none"
             id="path142" /></g><g
           id="g144"
           transform="translate(130.2534,296.376)"><path
             d="m 0,0 c -1.503,6.098 -4.182,11.904 -7.846,17.005 -1.473,-1.704 -2.946,-3.407 -4.419,-5.111 1.097,5.185 -0.777,10.643 -3.856,14.956 -3.08,4.313 -7.274,7.682 -11.413,10.992 -1.652,-1.85 -3.56,-3.471 -5.652,-4.805 -2.033,2.322 0.491,6.285 -1.066,8.951 -0.492,0.843 -1.329,1.418 -2.146,1.952 -9.46,6.177 -20.075,10.58 -31.13,12.913 -2.11,0.445 -4.502,0.761 -6.255,-0.494 -2.334,-1.67 -2.268,-5.11 -1.848,-7.95 0.429,-2.908 0.976,-5.798 1.639,-8.661 0.786,-3.398 2.178,-7.249 5.488,-8.35 1.437,-0.477 3.006,-0.33 4.486,-0.648 1.48,-0.318 3.026,-1.395 3.019,-2.909 -2.373,-0.804 -5.017,-0.782 -7.376,0.062 2.042,-4.235 4.437,-8.299 7.152,-12.137 2.591,-3.662 6.209,-7.457 10.683,-7.137 1.85,0.133 4.2,0.777 5.187,-0.793 0.838,-1.331 -0.371,-3.182 -1.891,-3.586 -1.52,-0.404 -3.11,0.164 -4.579,0.724 4.04,-6.416 8.598,-12.506 13.615,-18.192 1.888,-2.138 3.942,-4.29 6.617,-5.28 2.684,-0.994 5.925,-0.802 8.043,-2.727 -0.961,-0.689 -1.923,-1.379 -2.884,-2.068 -0.098,-1.785 1.967,-2.798 3.678,-3.311 7.178,-2.153 14.458,-3.971 21.807,-5.443 0.414,-0.083 0.858,-0.163 1.248,0 0.717,0.298 0.89,1.216 0.956,1.989 0.825,9.697 0.552,19.486 -0.812,29.121"
             style="fill:#ff965f;fill-opacity:1;fill-rule:nonzero;stroke:none"
             id="path146" /></g><g
           id="g148"
           transform="translate(62.6124,345.0776)"><path
             d="m 0,0 c 9.875,-9.378 19.755,-18.763 29.125,-28.651 9.221,-9.732 17.761,-20.011 25.612,-30.878 4.545,-6.291 8.909,-12.71 13.273,-19.128 0.267,-0.393 -0.374,-0.761 -0.641,-0.368 -7.684,11.298 -15.382,22.616 -24.036,33.205 -8.462,10.353 -17.738,20.008 -27.272,29.371 C 10.593,-11.08 5.037,-5.803 -0.52,-0.526 -0.865,-0.198 -0.345,0.328 0,0"
             style="fill:#ffffff;fill-opacity:1;fill-rule:nonzero;stroke:none"
             id="path150" /></g><g
           id="g152"
           transform="translate(82.1192,340.9839)"><path
             d="M 0,0 C 1.502,-5.576 2.296,-11.281 2.373,-17.055 2.379,-17.531 1.64,-17.536 1.634,-17.059 1.558,-11.348 0.772,-5.707 -0.714,-0.192 -0.838,0.268 -0.124,0.461 0,0"
             style="fill:#ffffff;fill-opacity:1;fill-rule:nonzero;stroke:none"
             id="path154" /></g><g
           id="g156"
           transform="translate(78.1958,316.3467)"><path
             d="M 0,0 C 5.653,-2.312 11.558,-3.843 17.619,-4.596 18.09,-4.654 17.901,-5.37 17.436,-5.312 11.306,-4.551 5.354,-2.982 -0.362,-0.645 -0.802,-0.465 -0.435,0.178 0,0"
             style="fill:#ffffff;fill-opacity:1;fill-rule:nonzero;stroke:none"
             id="path158" /></g><g
           id="g160"
           transform="translate(109.2774,316.1118)"><path
             d="m 0,0 c 0.805,-6.394 0.603,-12.82 -0.586,-19.153 -0.088,-0.469 -0.804,-0.282 -0.716,0.184 1.177,6.271 1.36,12.635 0.563,18.965 C -0.799,0.467 -0.059,0.467 0,0"
             style="fill:#ffffff;fill-opacity:1;fill-rule:nonzero;stroke:none"
             id="path162" /></g><g
           id="g164"
           transform="translate(98,289.6714)"><path
             d="m 0,0 c 5.872,-3.112 12.318,-4.751 18.963,-4.822 0.476,-0.005 0.482,-0.744 0.005,-0.739 C 12.203,-5.489 5.616,-3.813 -0.361,-0.645 -0.783,-0.422 -0.42,0.223 0,0"
             style="fill:#ffffff;fill-opacity:1;fill-rule:nonzero;stroke:none"
             id="path166" /></g><g
           id="g168"
           transform="translate(309.2661,315.7461)"><path
             d="m 0,0 c 1.448,4.146 3.694,8.011 6.58,11.321 0.913,-1.283 1.826,-2.566 2.739,-3.849 -0.422,3.681 1.242,7.357 3.669,10.157 2.427,2.8 5.569,4.869 8.666,6.901 1.03,-1.396 2.25,-2.651 3.618,-3.717 1.569,1.483 0.073,4.407 1.332,6.161 0.398,0.554 1.018,0.9 1.622,1.217 6.992,3.678 14.67,6.044 22.518,6.941 1.498,0.171 3.184,0.234 4.321,-0.755 1.515,-1.316 1.243,-3.707 0.764,-5.655 -0.49,-1.996 -1.06,-3.972 -1.711,-5.922 -0.77,-2.313 -1.992,-4.902 -4.369,-5.45 -1.031,-0.238 -2.114,-0.033 -3.165,-0.157 -1.052,-0.124 -2.198,-0.772 -2.293,-1.826 1.599,-0.716 3.441,-0.874 5.139,-0.442 C 47.729,12.112 45.796,9.44 43.653,6.948 41.608,4.569 38.841,2.165 35.747,2.682 34.468,2.896 32.875,3.499 32.084,2.471 c -0.67,-0.871 0.05,-2.239 1.081,-2.62 1.031,-0.382 2.176,-0.091 3.235,0.203 -3.234,-4.201 -6.807,-8.14 -10.673,-11.767 -1.456,-1.365 -3.027,-2.727 -4.954,-3.241 -1.933,-0.515 -4.177,-0.168 -5.778,-1.369 0.624,-0.543 1.248,-1.086 1.872,-1.63 -0.05,-1.248 -1.554,-1.818 -2.778,-2.062 -5.139,-1.027 -10.325,-1.813 -15.537,-2.355 -0.294,-0.03 -0.609,-0.056 -0.869,0.082 -0.48,0.255 -0.54,0.906 -0.535,1.448 0.064,6.804 0.898,13.6 2.481,20.217"
             style="fill:#ff965f;fill-opacity:1;fill-rule:nonzero;stroke:none"
             id="path170" /></g><g
           id="g172"
           transform="translate(359.5533,345.1968)"><path
             d="m 0,0 c -7.491,-5.878 -14.985,-11.761 -22.157,-18.027 -7.06,-6.168 -13.68,-12.761 -19.86,-19.809 -3.577,-4.081 -7.037,-8.261 -10.497,-12.441 -0.212,-0.256 0.21,-0.555 0.422,-0.299 6.092,7.36 12.195,14.731 18.915,21.532 6.572,6.65 13.663,12.76 20.915,18.65 4.159,3.378 8.374,6.686 12.588,9.994 C 0.589,-0.194 0.262,0.206 0,0"
             style="fill:#ffffff;fill-opacity:1;fill-rule:nonzero;stroke:none"
             id="path174" /></g><g
           id="g176"
           transform="translate(345.7056,343.6304)"><path
             d="m 0,0 c -1.413,-3.782 -2.341,-7.701 -2.773,-11.715 -0.037,-0.331 0.478,-0.383 0.513,-0.052 0.429,3.971 1.347,7.846 2.744,11.587 C 0.601,0.131 0.116,0.312 0,0"
             style="fill:#ffffff;fill-opacity:1;fill-rule:nonzero;stroke:none"
             id="path178" /></g><g
           id="g180"
           transform="translate(346.8159,326.2231)"><path
             d="m 0,0 c -4.087,-1.237 -8.299,-1.915 -12.566,-2.04 -0.332,-0.01 -0.248,-0.521 0.08,-0.511 4.317,0.127 8.562,0.827 12.695,2.078 C 0.527,-0.376 0.314,0.095 0,0"
             style="fill:#ffffff;fill-opacity:1;fill-rule:nonzero;stroke:none"
             id="path182" /></g><g
           id="g184"
           transform="translate(325.1656,328.104)"><path
             d="m 0,0 c -0.981,-4.397 -1.263,-8.884 -0.853,-13.37 0.032,-0.332 0.541,-0.25 0.511,0.08 -0.406,4.443 -0.115,8.885 0.857,13.238 C 0.587,0.273 0.071,0.321 0,0"
             style="fill:#ffffff;fill-opacity:1;fill-rule:nonzero;stroke:none"
             id="path186" /></g><g
           id="g188"
           transform="translate(331.2759,308.958)"><path
             d="m 0,0 c -4.292,-1.78 -8.887,-2.497 -13.517,-2.109 -0.332,0.028 -0.383,-0.487 -0.051,-0.515 4.713,-0.394 9.408,0.339 13.777,2.151 C 0.518,-0.345 0.308,0.127 0,0"
             style="fill:#ffffff;fill-opacity:1;fill-rule:nonzero;stroke:none"
             id="path190" /></g><g
           id="g192"
           transform="translate(95.1773,243.1514)"><path
             d="m 0,0 c -3.294,4.011 -7.359,7.384 -11.908,9.881 -0.491,-1.795 -0.982,-3.59 -1.473,-5.385 -1.031,4.256 -4.372,7.657 -8.204,9.775 -3.833,2.118 -8.16,3.135 -12.425,4.128 -0.573,-1.968 -1.417,-3.857 -2.501,-5.596 -2.343,1.006 -1.874,4.86 -3.984,6.292 -0.668,0.453 -1.496,0.584 -2.296,0.691 -9.253,1.234 -18.735,0.733 -27.807,-1.468 -1.731,-0.42 -3.627,-1.036 -4.487,-2.596 -1.145,-2.077 0.131,-4.618 1.455,-6.585 1.356,-2.015 2.794,-3.975 4.309,-5.873 1.797,-2.252 4.206,-4.627 7.066,-4.268 1.241,0.155 2.359,0.824 3.575,1.115 1.217,0.29 2.753,0.038 3.287,-1.092 -1.482,-1.446 -3.461,-2.372 -5.52,-2.583 3.031,-2.429 6.264,-4.606 9.656,-6.499 3.236,-1.806 7.286,-3.346 10.507,-1.513 1.332,0.758 2.854,2.075 4.149,1.257 1.099,-0.694 0.857,-2.504 -0.131,-3.347 -0.989,-0.843 -2.377,-0.986 -3.672,-1.093 5.298,-3.343 10.866,-6.259 16.632,-8.709 2.168,-0.922 4.467,-1.793 6.814,-1.578 2.354,0.216 4.703,1.514 6.967,0.833 -0.471,-0.856 -0.942,-1.713 -1.413,-2.569 0.563,-1.365 2.463,-1.385 3.922,-1.158 6.119,0.953 12.192,2.193 18.195,3.713 0.339,0.085 0.698,0.185 0.932,0.445 0.427,0.477 0.23,1.224 0.003,1.824 -2.841,7.521 -6.533,14.722 -10.982,21.419"
             style="fill:#4180a9;fill-opacity:1;fill-rule:nonzero;stroke:none"
             id="path194" /></g><g
           id="g196"
           transform="translate(27.3999,255.3535)"><path
             d="m 0,0 c 10.703,-3.472 21.412,-6.947 31.92,-10.98 10.342,-3.969 20.371,-8.587 30.096,-13.891 5.63,-3.07 11.171,-6.301 16.71,-9.529 0.339,-0.198 -0.007,-0.701 -0.346,-0.503 -9.754,5.684 -19.525,11.378 -29.751,16.187 -9.997,4.702 -20.352,8.594 -30.795,12.177 C 11.845,-4.485 5.822,-2.531 -0.2,-0.577 -0.574,-0.456 -0.375,0.122 0,0"
             style="fill:#ffffff;fill-opacity:1;fill-rule:nonzero;stroke:none"
             id="path198" /></g><g
           id="g200"
           transform="translate(43.3999,259.2529)"><path
             d="m 0,0 c 3.107,-3.621 5.731,-7.591 7.846,-11.868 0.175,-0.353 -0.375,-0.619 -0.55,-0.267 -2.091,4.231 -4.687,8.156 -7.76,11.738 C -0.72,-0.099 -0.257,0.299 0,0"
             style="fill:#ffffff;fill-opacity:1;fill-rule:nonzero;stroke:none"
             id="path202" /></g><g
           id="g204"
           transform="translate(49.254,239.4892)"><path
             d="m 0,0 c 5.038,0.291 9.986,1.253 14.772,2.853 0.373,0.124 0.487,-0.477 0.119,-0.6 C 10.05,0.636 5.055,-0.315 -0.039,-0.61 -0.432,-0.633 -0.388,-0.022 0,0"
             style="fill:#ffffff;fill-opacity:1;fill-rule:nonzero;stroke:none"
             id="path206" /></g><g
           id="g208"
           transform="translate(72.5079,250.3891)"><path
             d="M 0,0 C 2.878,-4.479 5.018,-9.342 6.388,-14.486 6.49,-14.867 5.89,-14.983 5.789,-14.605 4.432,-9.51 2.3,-4.701 -0.55,-0.267 -0.762,0.064 -0.21,0.328 0,0"
             style="fill:#ffffff;fill-opacity:1;fill-rule:nonzero;stroke:none"
             id="path210" /></g><g
           id="g212"
           transform="translate(73.523,226.6611)"><path
             d="M 0,0 C 5.486,-0.228 10.875,0.848 15.854,3.163 16.211,3.328 16.479,2.779 16.121,2.613 11.053,0.256 5.545,-0.842 -0.04,-0.61 -0.433,-0.594 -0.393,0.017 0,0"
             style="fill:#ffffff;fill-opacity:1;fill-rule:nonzero;stroke:none"
             id="path214" /></g><g
           id="g216"><g
             id="g218" /><g
             id="g230"><g
               clip-path="url(#clipPath222)"
               opacity="0.509995"
               id="g228"><g
                 transform="translate(199.7554,279.668)"
                 id="g226"><path
                   d="m 0,0 c -5.151,4.823 -7.682,12.292 -6.524,19.253 0.469,2.819 1.587,5.658 3.772,7.5 2.184,1.843 5.6,2.403 7.928,0.746 2.361,-1.68 4.977,-5.407 7.045,-3.377 1.425,1.4 0.087,3.749 0.025,5.745 -0.115,3.627 4.564,5.814 8.012,4.684 3.449,-1.13 5.774,-4.273 7.867,-7.237 4.163,2.592 3.557,8.638 4.095,13.512 0.897,8.13 6.802,15.494 14.542,18.135 -1.006,-3.495 -1.668,-8.038 1.343,-10.078 0.852,-0.576 1.925,-0.867 2.575,-1.664 2.514,-3.084 -4.057,-8.518 -0.946,-10.999 2.366,-1.885 5.959,2.112 8.647,0.725 3.269,-1.689 0.306,-8.367 3.74,-9.689 2.018,-0.777 3.845,1.339 5.682,2.48 3.135,1.948 7.767,0.752 9.627,-2.437 1.858,-3.189 0.664,-7.757 -2.484,-9.687 4.828,-0.188 10.05,-0.521 13.741,-3.639 3.69,-3.118 4.27,-10.099 -0.077,-12.209"
                   style="fill:#7db4d9;fill-opacity:1;fill-rule:nonzero;stroke:none"
                   id="path224" /></g></g></g></g><g
           id="g232"
           transform="translate(199.107,361.124)"><path
             d="M 0,0 1.194,-16.746 24.357,-15.753 23.615,2.08 Z"
             style="fill:#4180a9;fill-opacity:1;fill-rule:nonzero;stroke:none"
             id="path234" /></g><g
           id="g236"
           transform="translate(210.0244,365.9634)"><path
             d="M 0,0 -21.47,-5.52 2.498,-7.703 24.729,-3.638 26.469,-3.32 0.411,0.025 C 0.274,0.043 0.134,0.035 0,0"
             style="fill:#214b63;fill-opacity:1;fill-rule:nonzero;stroke:none"
             id="path238" /></g><g
           id="g240"
           transform="translate(236.146,336.3843)"><path
             d="m 0,0 -1.005,26.23 0.473,0.026 1.005,-26.23 z"
             style="fill:#214b63;fill-opacity:1;fill-rule:nonzero;stroke:none"
             id="path242" /></g><g
           id="g244"
           transform="translate(236.294,337.2187)"><path
             d="m 0,0 -0.771,-2.545 1.076,-0.731 0.808,0.973 z"
             style="fill:#214b63;fill-opacity:1;fill-rule:nonzero;stroke:none"
             id="path246" /></g><g
           id="g248"
           transform="translate(208.42,333.5151)"><path
             d="m 0,0 c 0.729,2.021 0.149,4.267 -0.591,6.284 -0.739,2.018 -2.169,2.664 -2.095,4.812 0.448,0.266 0.94,0.266 1.456,0.337 0.515,0.071 0.865,0.057 1.528,0.036 0.242,-0.007 0.444,-0.003 0.444,-0.003 0.603,-0.038 1.246,0.339 1.642,0.715 1.236,1.173 1.878,2.853 2.177,4.53 0.298,1.678 0.292,3.393 0.443,5.09 0.046,0.511 0.302,1.183 0.808,1.097 0.201,-0.034 0.356,-0.19 0.494,-0.34 0.37,-0.404 0.719,-0.827 1.048,-1.264 0.529,-0.707 1.006,-1.454 1.423,-2.232 0.735,-1.37 1.292,-2.868 1.352,-4.421 C 10.295,10.346 6.759,6.775 5.984,2.546 5.684,0.904 5.812,-0.783 5.941,-2.448"
             style="fill:#ffd0bc;fill-opacity:1;fill-rule:nonzero;stroke:none"
             id="path250" /></g><g
           id="g252"
           transform="translate(165.3189,341.1919)"><path
             d="m 0,0 c 0.929,-4.202 0.434,-9.001 -2.963,-11.643 -0.409,-0.317 -0.891,-0.731 -0.787,-1.238 0.04,-0.196 0.167,-0.363 0.297,-0.515 1.278,-1.493 3.173,-2.299 5.047,-2.887 2.389,-0.75 4.89,-1.229 7.39,-1.094 2.501,0.134 5.008,0.915 6.964,2.477 0.234,0.187 0.469,0.397 0.569,0.678 0.088,0.249 0.061,0.522 0.031,0.785 l -0.266,2.418 c -0.021,0.185 -0.046,0.382 -0.169,0.522 -0.126,0.145 -0.326,0.195 -0.514,0.233 -0.917,0.186 -1.861,0.263 -2.752,0.549 -0.89,0.286 -1.126,0.505 -1.529,1.349 -0.417,0.871 -0.618,3.777 -0.452,4.727 0.724,4.154 1.477,6.69 2.823,10.685"
             style="fill:#f4c5b5;fill-opacity:1;fill-rule:nonzero;stroke:none"
             id="path254" /></g><g
           id="g256"
           transform="translate(163.1289,362.1748)"><path
             d="m 0,0 c -1.166,-1.121 -1.586,-2.816 -1.679,-4.431 -0.094,-1.614 0.084,-3.244 -0.131,-4.847 -0.201,-1.511 -0.747,-2.961 -0.91,-4.476 -0.188,-1.759 0.147,-3.53 0.552,-5.252 0.471,-2.008 1.063,-4.044 2.296,-5.696 0.3,-0.401 0.655,-0.79 1.126,-0.959 0.524,-0.189 1.105,-0.077 1.648,0.053 4.389,1.051 8.588,3.186 11.663,6.49 3.075,3.305 4.935,7.836 4.572,12.335"
             style="fill:#ffd0bc;fill-opacity:1;fill-rule:nonzero;stroke:none"
             id="path258" /></g><g
           id="g260"
           transform="translate(175.4839,347.9199)"><path
             d="M 0,0 C 0.261,0.847 1.15,1.454 2.034,1.388 2.917,1.323 3.708,0.592 3.842,-0.284 4.071,-1.779 2.647,-2.932 1.785,-4.174 1.387,-4.749 1.093,-5.395 0.922,-6.072 0.725,-6.857 0.715,-7.76 1.212,-8.4 c 0.85,-1.095 2.632,-0.79 3.75,0.028 1.551,1.135 2.462,2.948 3.061,4.774 0.599,1.827 0.944,3.736 1.663,5.518 0.322,0.798 0.716,1.564 1.048,2.358 0.902,2.156 2.084,4.081 2.008,6.417 -0.066,2.03 -1.28,4.511 -2.367,6.226 -1.087,1.716 -2.848,3.06 -4.855,3.373 -1.05,0.164 -2.13,0.045 -3.157,-0.225 -0.999,-0.263 -2.034,-0.112 -3.066,-0.067 -2.003,0.089 -3.456,1.254 -5.286,2.073 -2.994,1.339 -6.66,0.025 -8.922,-2.35 -1.98,-2.08 -3.138,-5.022 -2.73,-7.865 0.409,-2.843 2.534,-5.46 5.332,-6.108 1.469,-0.34 3.007,-0.152 4.508,-0.305 3.156,-0.322 6.105,-2.258 7.655,-5.026"
             style="fill:#214b63;fill-opacity:1;fill-rule:nonzero;stroke:none"
             id="path262" /></g><g
           id="g264"
           transform="translate(176.8301,332.0029)"><path
             d="m 0,0 c -0.557,-0.258 -0.831,-0.658 -1.419,-0.835 -1.249,-0.377 -2.391,-0.545 -3.664,-0.707 -2.404,-0.306 -5.45,0.04 -7.71,0.914 -0.132,0.051 -0.273,0.107 -0.412,0.078 -0.287,-0.059 -0.38,-0.416 -0.415,-0.707 -1.155,-9.7 -1.408,-19.507 -0.756,-29.253 0.099,-1.488 0.354,-3.202 1.632,-3.971 0.633,-0.381 1.401,-0.443 2.138,-0.492 3.294,-0.22 6.676,-0.358 9.824,0.64 0.324,0.103 0.658,0.226 0.892,0.474 0.295,0.313 0.376,0.766 0.443,1.192 1.167,7.439 2.043,15.036 0.911,22.481 -0.302,1.993 -0.75,3.991 -0.619,6.002"
             style="fill:#ea6d30;fill-opacity:1;fill-rule:nonzero;stroke:none"
             id="path266" /></g><g
           id="g268"
           transform="translate(176.8423,332.4292)"><path
             d="m 0,0 c -0.825,-1.899 -1.601,-4.355 -2.058,-6.375 -2.33,-10.306 -4.665,-20.633 -5.943,-31.121 -0.024,-0.201 -0.04,-0.431 0.097,-0.581 0.134,-0.147 0.36,-0.154 0.56,-0.151 6.109,0.111 12.216,0.379 18.312,0.804 0.465,0.032 0.988,0.096 1.27,0.467 0.233,0.307 0.223,0.727 0.205,1.111 -0.498,10.244 0.016,20.536 1.533,30.679 0.028,0.192 0.052,0.408 -0.063,0.563 -0.09,0.122 -0.242,0.177 -0.386,0.225 C 9.026,-2.875 4.569,-1.285 0,0"
             style="fill:#214b63;fill-opacity:1;fill-rule:nonzero;stroke:none"
             id="path270" /></g><g
           id="g272"
           transform="translate(164.1714,331.6753)"><path
             d="m 0,0 1.367,-13.734 c 0.756,-7.594 1.516,-15.215 3.296,-22.635 0.067,-0.282 0.133,-0.595 -0.004,-0.851 -0.209,-0.386 -0.74,-0.42 -1.179,-0.405 l -12.877,0.46 c -0.26,2.87 -0.519,5.739 -0.777,8.608 -0.627,6.942 -1.254,13.886 -1.748,20.839 -0.023,0.326 -0.278,2.301 -0.126,2.59 0.084,0.159 0.069,0.233 0.322,0.374 3.703,2.07 7.984,3.203 11.698,4.747"
             style="fill:#214b63;fill-opacity:1;fill-rule:nonzero;stroke:none"
             id="path274" /></g><g
           id="g276"
           transform="translate(190.7549,327.8257)"><path
             d="m 0,0 c 1.56,-1.317 2.05,-3.044 3.268,-4.683 1.37,-1.841 2.495,-3.85 3.616,-5.853 2.408,-4.302 5.413,-6.665 7.391,-9.543 0.412,9.75 1.263,16.11 2.877,25.735 0.027,0.16 0.06,0.333 0.181,0.442 0.143,0.129 0.358,0.125 0.551,0.113 1.617,-0.097 3.234,-0.195 4.851,-0.293 0.446,-0.026 0.95,-0.083 1.219,-0.439 0.192,-0.256 0.208,-0.601 0.216,-0.921 0.037,-1.485 0.074,-2.97 0.111,-4.454 0.123,-4.998 0.247,-10.011 -0.226,-14.988 -0.474,-4.977 -1.561,-9.945 -3.752,-14.439 -0.61,-1.25 -1.39,-2.542 -2.671,-3.086 -1.451,-0.616 -3.115,-0.102 -4.577,0.488 -3.932,1.584 -7.037,4.253 -10.413,6.817 -1.591,1.208 -3.754,1.998 -4.725,3.744 -0.847,1.521 -1.209,3.263 -1.425,4.991 C -4.172,-11.068 -2.36,-4.792 0,0"
             style="fill:#214b63;fill-opacity:1;fill-rule:nonzero;stroke:none"
             id="path278" /></g><g
           id="g280"
           transform="translate(152.1236,326.5469)"><path
             d="m 0,0 c 1.391,-1.347 2.12,-4.935 2.408,-6.849 0.304,-2.021 0.345,-4.081 0.12,-6.112 -0.219,-1.986 -0.689,-3.934 -1.157,-5.875 -1.013,-4.196 -2.025,-8.392 -3.038,-12.587 -0.044,-0.184 -0.097,-0.383 -0.245,-0.502 -0.144,-0.116 -0.341,-0.129 -0.525,-0.131 -3.46,-0.036 -6.727,2.053 -10.175,1.77 1.76,5.434 3.521,10.868 5.281,16.302 0.705,2.173 1.838,7.008 2.956,9.001 C -3.258,-2.991 -2.041,-1.026 0,0"
             style="fill:#214b63;fill-opacity:1;fill-rule:nonzero;stroke:none"
             id="path282" /></g><g
           id="g284"
           transform="translate(375.2134,290.1899)"><path
             d="m 0,0 c -0.427,0.003 -0.854,0.082 -1.267,0.235 -0.924,0.347 -1.66,1.033 -2.07,1.932 -0.846,1.855 -0.025,4.054 1.832,4.9 L 4.424,9.771 C 4.562,9.834 4.724,9.773 4.787,9.635 4.85,9.497 4.788,9.334 4.65,9.271 L -1.278,6.568 C -2.859,5.847 -3.559,3.975 -2.838,2.394 -2.489,1.628 -1.862,1.044 -1.074,0.75 -0.284,0.455 0.571,0.486 1.336,0.834 l 9.924,4.524 c 1.202,0.549 1.735,1.975 1.187,3.179 -0.55,1.203 -1.975,1.736 -3.178,1.188 L 0.501,5.727 C -0.312,5.356 -0.671,4.394 -0.301,3.581 0.071,2.768 1.034,2.41 1.846,2.78 l 8.259,3.766 c 0.138,0.064 0.3,0.003 0.364,-0.136 0.062,-0.138 0.001,-0.3 -0.137,-0.363 L 2.072,2.281 C 0.984,1.786 -0.304,2.266 -0.8,3.354 -1.295,4.442 -0.813,5.73 0.273,6.226 l 8.768,3.998 c 1.476,0.672 3.23,0.019 3.905,-1.459 0.674,-1.48 0.02,-3.231 -1.459,-3.906 L 1.563,0.335 C 1.064,0.107 0.533,-0.004 0,0"
             style="fill:#ea6d30;fill-opacity:1;fill-rule:nonzero;stroke:none"
             id="path286" /></g><g
           id="g288"
           transform="translate(93.7671,257.6519)"><path
             d="M 0,0 C 0.18,-0.388 0.292,-0.807 0.329,-1.246 0.412,-2.23 0.106,-3.188 -0.531,-3.944 -1.846,-5.502 -4.185,-5.701 -5.744,-4.385 l -4.98,4.202 c -0.116,0.098 -0.131,0.27 -0.032,0.387 0.097,0.116 0.271,0.13 0.386,0.032 l 4.98,-4.202 c 1.328,-1.12 3.32,-0.951 4.44,0.376 0.543,0.643 0.803,1.459 0.732,2.298 -0.072,0.84 -0.466,1.6 -1.107,2.143 l -8.336,7.033 c -1.01,0.852 -2.527,0.724 -3.381,-0.287 -0.852,-1.011 -0.724,-2.528 0.287,-3.381 l 7.364,-6.214 c 0.683,-0.575 1.706,-0.489 2.283,0.194 0.576,0.683 0.488,1.708 -0.195,2.282 l -6.937,5.854 c -0.117,0.098 -0.131,0.27 -0.033,0.387 0.098,0.115 0.271,0.13 0.387,0.032 l 6.937,-5.854 c 0.914,-0.772 1.031,-2.142 0.26,-3.055 -0.772,-0.913 -2.143,-1.03 -3.056,-0.259 l -7.364,6.214 c -1.239,1.047 -1.399,2.911 -0.352,4.154 1.049,1.242 2.912,1.401 4.154,0.352 L -0.972,1.269 C -0.552,0.916 -0.224,0.483 0,0"
             style="fill:#ea6d30;fill-opacity:1;fill-rule:nonzero;stroke:none"
             id="path290" /></g><g
           id="g292"
           transform="translate(348.8462,167.8789)"><path
             d="m 0,0 c 0,0 -22.861,112.967 -22.977,114.194 l -109.257,-3.459 -0.241,-17.473 0.055,17.474 -109.184,5.308 C -241.74,114.819 -266.509,2.256 -266.509,2.256 l 121.55,-0.374 c 0,0 2.499,-5.276 11.666,-5.353 9.166,-0.078 11.753,5.155 11.753,5.155 z"
             style="fill:#214b63;fill-opacity:1;fill-rule:nonzero;stroke:none"
             id="path294" /></g></g></g><g
       id="g296"
       transform="translate(-19.04762,123.80953)"><g
         id="g298"
         clip-path="url(#clipPath302)"><g
           id="g304"><g
             id="g306" /><g
             id="g318"><g
               clip-path="url(#clipPath310)"
               opacity="0.5"
               id="g316"><g
                 transform="translate(227.2178,153.7558)"
                 id="g314"><path
                   d="m 0,0 -23.763,0.201 1.204,142.297 23.763,-0.201 z"
                   style="fill:#214b63;fill-opacity:1;fill-rule:nonzero;stroke:none"
                   id="path312" /></g></g></g></g></g></g><g
       id="g320"
       transform="translate(-19.04762,123.80953)"><g
         id="g322"
         clip-path="url(#clipPath326)"><g
           id="g328"
           transform="translate(215.5972,180.5742)"><path
             d="m 0,0 c -6.447,2.995 -64.91,28.783 -124.035,7.748 0,0 0.786,-0.56 1.555,-2.186 0.259,-0.546 0.515,-1.213 0.74,-2.026 0.226,-0.817 0.417,-1.782 0.548,-2.909 0.064,-0.56 0.117,-1.149 0.146,-1.794 0.045,-0.986 0.046,-2.072 -0.015,-3.271 0,0 85.221,-0.721 110.429,-2.364 0,0 0.385,0.417 1.102,0.99 0.747,0.598 1.853,1.366 3.275,2.021 0.844,0.39 1.798,0.738 2.852,0.986 0.168,0.04 0.346,0.069 0.519,0.102 0.899,0.178 1.857,0.288 2.883,0.28 1.207,-0.011 2.351,-0.174 3.417,-0.431 0.137,-0.032 0.269,-0.072 0.404,-0.108 0.973,-0.261 1.879,-0.592 2.696,-0.96 1.511,-0.681 2.725,-1.464 3.553,-2.07 0.79,-0.578 1.232,-0.995 1.232,-0.995 25.232,1.216 109.852,0.499 109.852,0.499 -0.04,1.188 -0.021,2.263 0.039,3.242 0.039,0.643 0.101,1.234 0.174,1.793 0.153,1.16 0.366,2.148 0.615,2.978 0.24,0.803 0.507,1.456 0.776,1.995 0.792,1.587 1.576,2.126 1.576,2.126 C 65.572,27.68 6.516,2.886 0,0"
             style="fill:#7db4d9;fill-opacity:1;fill-rule:nonzero;stroke:none"
             id="path330" /></g><g
           id="g332"
           transform="translate(319.4986,292.3662)"><path
             d="m 0,0 c -46.011,24.661 -98.939,-9.305 -102.965,-11.969 -3.979,2.732 -56.326,37.588 -102.746,13.71 -1.83,-10.899 -24.083,-107.142 -24.083,-107.142 0,0 67.977,9.625 125.889,-6.668 60.388,15.293 126.172,4.535 126.172,4.535 0,0 -20.622,96.606 -22.267,107.534"
             style="fill:#eaf4ef;fill-opacity:1;fill-rule:nonzero;stroke:none"
             id="path334" /></g></g></g><g
       id="g336"
       transform="translate(-19.04762,123.80953)"><g
         id="g338"
         clip-path="url(#clipPath342)"><g
           id="g344"><g
             id="g346" /><g
             id="g358"><g
               clip-path="url(#clipPath350)"
               opacity="0.300003"
               id="g356"><g
                 transform="translate(214.3848,297.3057)"
                 id="g354"><path
                   d="m 0,0 -3.071,-135.98 8.648,3.045 L 2.382,10.56 Z"
                   style="fill:#eaf4ef;fill-opacity:1;fill-rule:nonzero;stroke:none"
                   id="path352" /></g></g></g></g></g></g><g
       id="g360"
       transform="translate(-19.04762,123.80953)"><g
         id="g362"
         clip-path="url(#clipPath366)"><g
           id="g368"
           transform="translate(216.5337,280.397)"><path
             d="M 0,0 -0.94,-100.1"
             style="fill:none;stroke:#7db4d9;stroke-width:1;stroke-linecap:butt;stroke-linejoin:miter;stroke-miterlimit:10;stroke-dasharray:none;stroke-opacity:1"
             id="path370" /></g><g
           id="g372"
           transform="translate(231.2764,275.3125)"><path
             d="m 0,0 c 8.437,4.603 17.87,7.797 27.151,10.147 19.076,4.832 39.47,5.266 57.858,-2.446 0.415,-0.174 0.596,0.503 0.187,0.674 C 66.985,16.013 46.781,15.696 27.847,11.042 18.21,8.674 8.397,5.377 -0.353,0.604 -0.749,0.389 -0.396,-0.216 0,0"
             style="fill:#7db4d9;fill-opacity:1;fill-rule:nonzero;stroke:none"
             id="path374" /></g><g
           id="g376"
           transform="translate(231.2764,266.3086)"><path
             d="m 0,0 c 8.437,4.603 17.87,7.797 27.151,10.147 19.076,4.831 39.47,5.266 57.858,-2.446 0.415,-0.174 0.596,0.503 0.187,0.674 -18.211,7.638 -38.415,7.32 -57.349,2.667 C 18.21,8.673 8.397,5.377 -0.353,0.604 -0.749,0.389 -0.396,-0.216 0,0"
             style="fill:#7db4d9;fill-opacity:1;fill-rule:nonzero;stroke:none"
             id="path378" /></g><g
           id="g380"
           transform="translate(231.2764,257.3047)"><path
             d="m 0,0 c 8.437,4.603 17.87,7.797 27.151,10.147 19.076,4.831 39.47,5.266 57.858,-2.446 0.415,-0.174 0.596,0.503 0.187,0.674 -18.211,7.638 -38.415,7.32 -57.349,2.667 C 18.21,8.673 8.397,5.377 -0.353,0.604 -0.749,0.388 -0.396,-0.216 0,0"
             style="fill:#7db4d9;fill-opacity:1;fill-rule:nonzero;stroke:none"
             id="path382" /></g><g
           id="g384"
           transform="translate(231.2764,248.3008)"><path
             d="m 0,0 c 8.437,4.602 17.87,7.796 27.151,10.147 19.076,4.831 39.47,5.266 57.858,-2.446 0.415,-0.174 0.596,0.503 0.187,0.675 C 66.985,16.013 46.781,15.695 27.847,11.042 18.21,8.673 8.397,5.377 -0.353,0.604 -0.749,0.389 -0.396,-0.216 0,0"
             style="fill:#7db4d9;fill-opacity:1;fill-rule:nonzero;stroke:none"
             id="path386" /></g><g
           id="g388"
           transform="translate(231.2764,239.2969)"><path
             d="m 0,0 c 8.437,4.602 17.87,7.797 27.151,10.147 19.076,4.831 39.47,5.266 57.858,-2.447 0.415,-0.174 0.596,0.503 0.187,0.675 -18.211,7.638 -38.415,7.32 -57.349,2.667 C 18.21,8.673 8.397,5.377 -0.353,0.604 -0.749,0.388 -0.396,-0.217 0,0"
             style="fill:#7db4d9;fill-opacity:1;fill-rule:nonzero;stroke:none"
             id="path390" /></g><g
           id="g392"
           transform="translate(231.2764,230.293)"><path
             d="m 0,0 c 8.437,4.602 17.87,7.796 27.151,10.146 19.076,4.832 39.47,5.267 57.858,-2.446 0.415,-0.174 0.596,0.503 0.187,0.675 -18.211,7.638 -38.415,7.32 -57.349,2.667 C 18.21,8.673 8.397,5.377 -0.353,0.604 -0.749,0.388 -0.396,-0.217 0,0"
             style="fill:#7db4d9;fill-opacity:1;fill-rule:nonzero;stroke:none"
             id="path394" /></g><g
           id="g396"
           transform="translate(231.2764,221.2881)"><path
             d="m 0,0 c 8.437,4.603 17.87,7.797 27.151,10.147 19.076,4.832 39.47,5.266 57.858,-2.446 0.415,-0.174 0.596,0.503 0.187,0.675 -18.211,7.638 -38.415,7.32 -57.349,2.667 C 18.21,8.674 8.397,5.378 -0.353,0.604 -0.749,0.389 -0.396,-0.216 0,0"
             style="fill:#7db4d9;fill-opacity:1;fill-rule:nonzero;stroke:none"
             id="path398" /></g><g
           id="g400"
           transform="translate(231.2764,212.2842)"><path
             d="m 0,0 c 8.437,4.603 17.87,7.797 27.151,10.147 19.076,4.832 39.47,5.266 57.858,-2.446 0.415,-0.174 0.596,0.503 0.187,0.675 C 66.985,16.014 46.781,15.695 27.847,11.042 18.21,8.674 8.397,5.378 -0.353,0.604 -0.749,0.389 -0.396,-0.216 0,0"
             style="fill:#7db4d9;fill-opacity:1;fill-rule:nonzero;stroke:none"
             id="path402" /></g><g
           id="g404"
           transform="translate(231.2764,203.2803)"><path
             d="m 0,0 c 8.437,4.603 17.87,7.797 27.151,10.147 19.076,4.832 39.47,5.266 57.858,-2.446 0.415,-0.174 0.596,0.503 0.187,0.675 C 66.985,16.013 46.781,15.695 27.847,11.042 18.21,8.674 8.397,5.378 -0.353,0.604 -0.749,0.389 -0.396,-0.216 0,0"
             style="fill:#7db4d9;fill-opacity:1;fill-rule:nonzero;stroke:none"
             id="path406" /></g><g
           id="g408"
           transform="translate(231.2764,194.2764)"><path
             d="m 0,0 c 8.437,4.603 17.87,7.797 27.151,10.147 19.076,4.832 39.47,5.266 57.858,-2.446 0.415,-0.174 0.596,0.503 0.187,0.675 C 66.985,16.013 46.781,15.695 27.847,11.042 18.21,8.674 8.397,5.378 -0.353,0.604 -0.749,0.389 -0.396,-0.216 0,0"
             style="fill:#7db4d9;fill-opacity:1;fill-rule:nonzero;stroke:none"
             id="path410" /></g><g
           id="g412"
           transform="translate(200.9761,275.3125)"><path
             d="m 0,0 c -8.437,4.603 -17.87,7.797 -27.151,10.147 -19.076,4.832 -39.47,5.266 -57.859,-2.446 -0.414,-0.174 -0.595,0.503 -0.186,0.674 18.211,7.638 38.415,7.321 57.348,2.667 C -18.21,8.674 -8.397,5.377 0.353,0.604 0.749,0.389 0.396,-0.216 0,0"
             style="fill:#7db4d9;fill-opacity:1;fill-rule:nonzero;stroke:none"
             id="path414" /></g><g
           id="g416"
           transform="translate(200.9761,266.3086)"><path
             d="m 0,0 c -8.437,4.603 -17.87,7.797 -27.151,10.147 -19.076,4.831 -39.47,5.266 -57.859,-2.446 -0.414,-0.174 -0.595,0.503 -0.186,0.674 18.211,7.638 38.415,7.32 57.348,2.667 C -18.21,8.673 -8.397,5.377 0.353,0.604 0.749,0.389 0.396,-0.216 0,0"
             style="fill:#7db4d9;fill-opacity:1;fill-rule:nonzero;stroke:none"
             id="path418" /></g><g
           id="g420"
           transform="translate(200.9761,257.3047)"><path
             d="m 0,0 c -8.437,4.603 -17.87,7.797 -27.151,10.147 -19.076,4.831 -39.47,5.266 -57.859,-2.446 -0.414,-0.174 -0.595,0.503 -0.186,0.674 18.211,7.638 38.415,7.32 57.348,2.667 C -18.21,8.673 -8.397,5.377 0.353,0.604 0.749,0.388 0.396,-0.216 0,0"
             style="fill:#7db4d9;fill-opacity:1;fill-rule:nonzero;stroke:none"
             id="path422" /></g><g
           id="g424"
           transform="translate(200.9761,248.3008)"><path
             d="m 0,0 c -8.437,4.602 -17.87,7.796 -27.151,10.147 -19.076,4.831 -39.47,5.266 -57.859,-2.446 -0.414,-0.174 -0.595,0.503 -0.186,0.675 18.211,7.637 38.415,7.319 57.348,2.666 C -18.21,8.673 -8.397,5.377 0.353,0.604 0.749,0.389 0.396,-0.216 0,0"
             style="fill:#7db4d9;fill-opacity:1;fill-rule:nonzero;stroke:none"
             id="path426" /></g><g
           id="g428"
           transform="translate(200.9761,239.2969)"><path
             d="m 0,0 c -8.437,4.602 -17.87,7.797 -27.151,10.147 -19.076,4.831 -39.47,5.266 -57.859,-2.447 -0.414,-0.174 -0.595,0.503 -0.186,0.675 18.211,7.638 38.415,7.32 57.348,2.667 C -18.21,8.673 -8.397,5.377 0.353,0.604 0.749,0.388 0.396,-0.217 0,0"
             style="fill:#7db4d9;fill-opacity:1;fill-rule:nonzero;stroke:none"
             id="path430" /></g><g
           id="g432"
           transform="translate(200.9761,230.293)"><path
             d="m 0,0 c -8.437,4.602 -17.87,7.796 -27.151,10.146 -19.076,4.832 -39.47,5.267 -57.859,-2.446 -0.414,-0.174 -0.595,0.503 -0.186,0.675 18.211,7.638 38.415,7.32 57.348,2.667 C -18.21,8.673 -8.397,5.377 0.353,0.604 0.749,0.388 0.396,-0.217 0,0"
             style="fill:#7db4d9;fill-opacity:1;fill-rule:nonzero;stroke:none"
             id="path434" /></g><g
           id="g436"
           transform="translate(200.9761,221.2881)"><path
             d="m 0,0 c -8.437,4.603 -17.87,7.797 -27.151,10.147 -19.076,4.832 -39.47,5.266 -57.859,-2.446 -0.414,-0.174 -0.595,0.503 -0.186,0.675 18.211,7.638 38.415,7.32 57.348,2.667 C -18.21,8.674 -8.397,5.378 0.353,0.604 0.749,0.389 0.396,-0.216 0,0"
             style="fill:#7db4d9;fill-opacity:1;fill-rule:nonzero;stroke:none"
             id="path438" /></g><g
           id="g440"
           transform="translate(200.9761,212.2842)"><path
             d="m 0,0 c -8.437,4.603 -17.87,7.797 -27.151,10.147 -19.076,4.832 -39.47,5.266 -57.859,-2.446 -0.414,-0.174 -0.595,0.503 -0.186,0.675 18.211,7.638 38.415,7.319 57.348,2.666 C -18.21,8.674 -8.397,5.378 0.353,0.604 0.749,0.389 0.396,-0.216 0,0"
             style="fill:#7db4d9;fill-opacity:1;fill-rule:nonzero;stroke:none"
             id="path442" /></g><g
           id="g444"
           transform="translate(200.9761,203.2803)"><path
             d="m 0,0 c -8.437,4.603 -17.87,7.797 -27.151,10.147 -19.076,4.832 -39.47,5.266 -57.859,-2.446 -0.414,-0.174 -0.595,0.503 -0.186,0.675 18.211,7.637 38.415,7.319 57.348,2.666 C -18.21,8.674 -8.397,5.378 0.353,0.604 0.749,0.389 0.396,-0.216 0,0"
             style="fill:#7db4d9;fill-opacity:1;fill-rule:nonzero;stroke:none"
             id="path446" /></g><g
           id="g448"
           transform="translate(200.9761,194.2764)"><path
             d="m 0,0 c -8.437,4.603 -17.87,7.797 -27.151,10.147 -19.076,4.832 -39.47,5.266 -57.859,-2.446 -0.414,-0.174 -0.595,0.503 -0.186,0.675 18.211,7.637 38.415,7.319 57.348,2.666 C -18.21,8.674 -8.397,5.378 0.353,0.604 0.749,0.389 0.396,-0.216 0,0"
             style="fill:#7db4d9;fill-opacity:1;fill-rule:nonzero;stroke:none"
             id="path450" /></g><g
           id="g452"
           transform="translate(117.7989,204.9521)"><path
             d="m 0,0 c 0.683,-4.428 1.366,-8.86 1.699,-13.328 0.693,-9.271 -0.126,-18.583 -0.074,-27.879 0.039,-6.946 0.565,-13.88 1.18,-20.798 0.023,-0.251 0.051,-0.517 0.203,-0.718 0.235,-0.308 0.673,-0.356 1.06,-0.379 1.36,-0.078 2.72,-0.155 4.08,-0.233 0.872,6.79 1.193,13.637 1.75,20.46 1.185,14.515 3.439,28.942 6.738,43.128"
             style="fill:#4180a9;fill-opacity:1;fill-rule:nonzero;stroke:none"
             id="path454" /></g><g
           id="g456"
           transform="translate(133.1895,205.3447)"><path
             d="m 0,0 c 2.879,-14.674 1.115,-29.865 2.794,-44.725 0.241,-2.124 0.551,-4.239 0.819,-6.359 0.436,-3.448 0.76,-6.911 0.971,-10.381 0.014,-0.222 0.035,-0.462 0.187,-0.623 0.189,-0.2 0.502,-0.2 0.777,-0.185 l 3.374,0.178 c 0.54,7.228 1.08,14.454 1.62,21.681 0.659,8.818 1.319,17.65 2.758,26.376 0.846,5.128 1.961,10.233 2.174,15.426"
             style="fill:#4180a9;fill-opacity:1;fill-rule:nonzero;stroke:none"
             id="path458" /></g><g
           id="g460"
           transform="translate(119.5874,253.4556)"><path
             d="m 0,0 c 2.494,-7.938 0.505,-16.508 -1.492,-24.585 -2.062,-8.34 -4.124,-16.679 -6.186,-25.019 -0.048,-0.195 -0.088,-0.427 0.046,-0.577 0.099,-0.111 0.262,-0.137 0.411,-0.155 13.466,-1.631 27.119,-1.706 40.602,-0.224 0.256,0.028 0.521,0.06 0.738,0.199 0.588,0.375 0.497,1.245 0.337,1.925 -3.688,15.685 -5.801,31.74 -6.297,47.846"
             style="fill:#ea6d30;fill-opacity:1;fill-rule:nonzero;stroke:none"
             id="path462" /></g><g
           id="g464"
           transform="translate(138.7534,278.8984)"><path
             d="m 0,0 c -0.272,-1.735 -0.39,-3.526 0.02,-5.234 0.409,-1.707 1.405,-3.334 2.937,-4.193 -0.45,-0.68 -1.143,-1.161 -1.858,-1.553 -3.655,-2.005 -8.359,-1.94 -11.957,0.164 0.865,0.499 1.47,1.375 1.792,2.32 0.322,0.946 0.383,1.961 0.355,2.959 -0.072,2.481 -0.695,4.944 -1.81,7.16"
             style="fill:#f4c5b5;fill-opacity:1;fill-rule:nonzero;stroke:none"
             id="path466" /></g><g
           id="g468"
           transform="translate(126.5679,290.1631)"><path
             d="m 0,0 c -0.228,-2.414 0.268,-4.836 0.877,-7.183 0.362,-1.391 0.776,-2.796 1.572,-3.992 0.543,-0.816 1.247,-1.509 1.959,-2.182 0.919,-0.869 1.957,-1.759 3.218,-1.869 1.743,-0.151 3.222,1.223 4.302,2.6 1.713,2.183 3.082,4.659 3.826,7.333 0.744,2.673 0.844,5.549 0.095,8.221 -0.34,1.212 -0.873,2.407 -1.784,3.275 -0.911,0.868 -2.255,1.356 -3.463,1.003"
             style="fill:#ffd0bc;fill-opacity:1;fill-rule:nonzero;stroke:none"
             id="path470" /></g><g
           id="g472"
           transform="translate(137.3057,294.1177)"><path
             d="m 0,0 c -0.362,-2.964 2.454,-5.386 2.952,-8.331 0.375,-2.217 -0.603,-4.405 -1.299,-6.544 -0.66,-2.032 -1.079,-4.202 -0.706,-6.306 0.372,-2.104 1.651,-4.134 3.616,-4.973 1.883,-0.804 4.234,-0.345 5.677,1.107 2.084,2.096 1.987,5.548 1.038,8.348 -0.95,2.8 -2.593,5.36 -3.218,8.25 C 7.649,-6.551 7.697,-4.584 7.421,-2.662 7.094,-0.376 6.277,1.892 4.751,3.625 3.226,5.359 0.928,6.493 -1.371,6.282 -1.849,6.239 -2.323,6.139 -2.802,6.165 c -0.586,0.03 -1.144,0.246 -1.712,0.393 -2.863,0.737 -6.021,-0.38 -8.102,-2.479 -2.082,-2.1 -3.158,-5.055 -3.368,-8.004 -0.117,-1.638 0.012,-3.303 -0.333,-4.908 -0.739,-3.431 -3.498,-6.046 -4.898,-9.265 -1.076,-2.476 -1.305,-5.349 -0.433,-7.904 0.871,-2.556 2.883,-4.742 5.431,-5.634 2.548,-0.893 5.583,-0.393 7.586,1.417 1.69,1.526 2.547,3.818 2.711,6.09 0.165,2.271 -0.302,4.542 -0.91,6.736 -0.529,1.905 -1.167,3.943 -0.518,5.81 0.631,1.814 2.317,3.006 3.578,4.454 1.815,2.083 2.778,4.754 3.703,7.358"
             style="fill:#214b63;fill-opacity:1;fill-rule:nonzero;stroke:none"
             id="path474" /></g><g
           id="g476"
           transform="translate(150.0489,244.3486)"><path
             d="m 0,0 c 2.072,3.747 4.614,7.233 7.548,10.351 1.081,1.149 2.236,2.277 2.926,3.696 0.557,1.144 0.78,2.418 1.178,3.627 0.655,1.99 1.844,3.863 3.602,5.002 1.758,1.139 4.128,1.434 5.973,0.441 1.33,-0.717 2.258,-2.161 2.378,-3.64 0.055,-0.677 -0.718,-1.106 -1.244,-0.679 -0.744,0.604 -1.62,1.045 -2.55,1.272 -0.337,0.082 -0.701,0.136 -1.024,0.009 -0.624,-0.245 -0.822,-1.034 -0.806,-1.703 0.018,-0.67 0.155,-1.377 -0.128,-1.985 C 17.41,15.438 16.264,14.66 15.417,14.037 14.226,13.158 13.774,12.114 13.398,10.683 11.76,4.436 8.579,-1.402 4.217,-6.166 3.215,-7.26 2.121,-8.321 0.669,-8.776 c -0.751,-0.235 -1.57,-0.227 -2.324,-0.002 -2.06,0.612 0.498,1.929 -1.075,2.245"
             style="fill:#ffd0bc;fill-opacity:1;fill-rule:nonzero;stroke:none"
             id="path478" /></g><g
           id="g480"
           transform="translate(164.9312,274.9717)"><path
             d="M 0,0 C -0.619,-0.639 -0.913,-1.483 -0.719,-2.368 -0.418,-3.744 1.238,-4.19 0.753,-5.794 0.603,-6.291 1.377,-6.51 1.526,-6.015 1.765,-5.226 1.702,-4.42 1.214,-3.734 0.948,-3.36 0.526,-3.115 0.278,-2.731 -0.169,-2.038 0.015,-1.141 0.563,-0.574 0.924,-0.202 0.361,0.373 0,0"
             style="fill:#222221;fill-opacity:1;fill-rule:nonzero;stroke:none"
             id="path482" /></g><g
           id="g484"
           transform="translate(134.5298,237.7373)"><path
             d="m 0,0 c -0.167,-11.967 -0.334,-23.934 -0.502,-35.9 -0.002,-0.18 0.277,-0.183 0.28,-0.002 0.167,11.966 0.335,23.933 0.502,35.9 C 0.283,0.178 0.002,0.181 0,0"
             style="fill:#222221;fill-opacity:1;fill-rule:nonzero;stroke:none"
             id="path486" /></g><g
           id="g488"
           transform="translate(148.6289,245.7236)"><path
             d="m 0,0 c 0.264,-0.427 0.893,-0.49 1.345,-0.274 0.452,0.216 0.769,0.635 1.066,1.039 2.834,3.839 5.667,7.678 8.501,11.517 0.221,0.3 0.474,0.621 0.839,0.698 0.395,0.084 0.781,-0.146 1.119,-0.367 0.652,-0.425 1.304,-0.849 1.956,-1.275 0.213,-0.138 0.439,-0.293 0.526,-0.532 0.087,-0.238 0.014,-0.501 -0.06,-0.744 -1.94,-6.326 -4.727,-12.391 -8.261,-17.985 -0.744,-1.178 -1.547,-2.361 -2.679,-3.173 -1.133,-0.81 -2.674,-1.187 -3.944,-0.614 -1.687,0.762 -2.5,2.952 -4.293,3.414"
             style="fill:#ea6d30;fill-opacity:1;fill-rule:nonzero;stroke:none"
             id="path490" /></g><g
           id="g492"
           transform="translate(157.8418,271.5068)"><path
             d="m 0,0 c 0,0 -10.204,0.73 -19.669,-3.929 l 3.939,-0.033 z"
             style="fill:#eaf4ef;fill-opacity:1;fill-rule:nonzero;stroke:none"
             id="path494" /></g><g
           id="g496"
           transform="translate(118.0884,271.8433)"><path
             d="m 0,0 c 0,0 10.215,0.558 19.6,-4.261 l -3.939,0.033 z"
             style="fill:#eaf4ef;fill-opacity:1;fill-rule:nonzero;stroke:none"
             id="path498" /></g><g
           id="g500"
           transform="translate(134.2329,267.6113)"><path
             d="m 0,0 c 0,0 3.52,-1.428 7.357,-0.062 l -0.252,-29.87 c 0,0 -3.332,-2.399 -7.357,0.063 z"
             style="fill:#214b63;fill-opacity:1;fill-rule:nonzero;stroke:none"
             id="path502" /></g><g
           id="g504"
           transform="translate(141.5904,267.5493)"><path
             d="m 0,0 -7.357,0.062 c 0,0 3.519,-1.428 7.357,-0.062"
             style="fill:#2f8e63;fill-opacity:1;fill-rule:nonzero;stroke:none"
             id="path506" /></g><g
           id="g508"
           transform="translate(117.3497,272.1689)"><path
             d="m 0,0 -0.231,-27.368 16.862,-7.059 0.252,29.869 z"
             style="fill:#7db4d9;fill-opacity:1;fill-rule:nonzero;stroke:none"
             id="path510" /></g><g
           id="g512"
           transform="translate(158.5489,271.8203)"><path
             d="m 0,0 -0.232,-27.368 -16.979,-6.773 0.253,29.87 z"
             style="fill:#7db4d9;fill-opacity:1;fill-rule:nonzero;stroke:none"
             id="path514" /></g><g
           id="g516"
           transform="translate(129.4424,244.9834)"><path
             d="m 0,0 c 0.753,-0.041 1.42,0.525 1.796,1.181 0.375,0.654 0.54,1.406 0.831,2.102 0.48,1.15 1.292,2.124 2.093,3.078 0.728,0.87 1.457,1.74 2.185,2.609 C 7.048,8.062 6.862,7.105 6.389,6.317 6.2,6.003 5.964,5.705 5.889,5.347 5.813,4.989 5.976,4.544 6.333,4.464 6.685,4.385 6.997,4.682 7.242,4.946 c 1.626,1.753 3.557,3.221 5.681,4.32 -0.244,-1.2 -0.541,-2.39 -0.888,-3.564 0.14,-0.009 0.279,-0.017 0.42,-0.027 C 12.522,3.831 11.477,2.088 10.087,0.874 8.697,-0.34 6.986,-1.112 5.303,-1.867 3.883,-2.505 2.463,-3.142 1.042,-3.778"
             style="fill:#ffd0bc;fill-opacity:1;fill-rule:nonzero;stroke:none"
             id="path518" /></g><g
           id="g520"
           transform="translate(160.4038,257.2612)"><path
             d="m 0,0 c -0.697,-0.151 -0.67,-1.136 -0.252,-1.396 0.42,-0.261 1.065,0.025 1.153,0.512 C 0.99,-0.396 0.486,0.098 0,0"
             style="fill:#ffffff;fill-opacity:1;fill-rule:nonzero;stroke:none"
             id="path522" /></g><g
           id="g524"
           transform="translate(130.8091,244.584)"><path
             d="m 0,0 c -0.065,0.218 -0.136,0.447 -0.287,0.594 -0.255,0.247 -0.629,0.166 -0.948,0.072 -4.267,-1.253 -8.535,-2.507 -12.802,-3.76 0.572,0.068 1.105,1.166 1.725,2.734 l -1.379,0.577 0.171,20.193 c -4.072,-7.891 -5.697,-17.264 -7.147,-26.357 -0.138,-0.865 -0.274,-1.771 -0.061,-2.613 0.312,-1.229 1.33,-2.056 2.386,-2.316 1.055,-0.26 2.15,-0.048 3.207,0.209 5.676,1.379 11.129,4.065 15.968,7.867 C 0.556,-1.866 0.278,-0.934 0,0"
             style="fill:#ea6d30;fill-opacity:1;fill-rule:nonzero;stroke:none"
             id="path526" /></g><g
           id="g528"
           transform="translate(127.5064,244.3555)"><path
             d="m 0,0 c -0.697,-0.151 -0.67,-1.136 -0.252,-1.396 0.42,-0.261 1.065,0.025 1.153,0.512 C 0.99,-0.396 0.486,0.098 0,0"
             style="fill:#ffffff;fill-opacity:1;fill-rule:nonzero;stroke:none"
             id="path530" /></g><g
           id="g532"
           transform="translate(134.3706,236.2588)"><path
             d="M 0,0 C -0.697,-0.152 -0.67,-1.136 -0.253,-1.396 0.168,-1.658 0.812,-1.372 0.901,-0.884 0.989,-0.396 0.486,0.098 0,0"
             style="fill:#ffffff;fill-opacity:1;fill-rule:nonzero;stroke:none"
             id="path534" /></g><g
           id="g536"
           transform="translate(134.291,226.8408)"><path
             d="M 0,0 C -0.698,-0.152 -0.67,-1.136 -0.253,-1.396 0.168,-1.657 0.812,-1.372 0.901,-0.884 0.989,-0.396 0.486,0.098 0,0"
             style="fill:#ffffff;fill-opacity:1;fill-rule:nonzero;stroke:none"
             id="path538" /></g><g
           id="g540"
           transform="translate(134.211,217.4228)"><path
             d="m 0,0 c -0.697,-0.151 -0.67,-1.136 -0.252,-1.396 0.42,-0.261 1.065,0.025 1.153,0.512 C 0.99,-0.396 0.486,0.098 0,0"
             style="fill:#ffffff;fill-opacity:1;fill-rule:nonzero;stroke:none"
             id="path542" /></g><g
           id="g544"
           transform="translate(134.1314,208.0049)"><path
             d="M 0,0 C -0.697,-0.151 -0.67,-1.136 -0.253,-1.396 0.168,-1.657 0.813,-1.371 0.901,-0.884 0.99,-0.396 0.486,0.098 0,0"
             style="fill:#ffffff;fill-opacity:1;fill-rule:nonzero;stroke:none"
             id="path546" /></g><g
           id="g548"
           transform="translate(171.2276,257.4243)"><path
             d="M 0,0 0.006,0.036 -0.001,0.034 c 0.013,0.095 0.016,0.196 -0.01,0.307 -1.376,5.813 -2.943,11.575 -4.699,17.284 -0.304,0.985 -1.861,0.578 -1.555,-0.415 1.757,-5.709 3.324,-11.471 4.7,-17.283 0.027,-0.118 0.076,-0.213 0.135,-0.293 l -0.004,-0.001 0.01,-0.01 c 0.005,-0.007 0.01,-0.012 0.015,-0.019 l 1.136,-1.303 0.271,1.686 C -0.001,-0.009 0,-0.004 0,0"
             style="fill:#222221;fill-opacity:1;fill-rule:nonzero;stroke:none"
             id="path550" /></g><g
           id="g552"
           transform="translate(166.9292,259.5225)"><path
             d="M 0,0 C 0,0 1.958,0.985 3.379,2.915 4.801,4.844 1.934,3.835 1.706,3.373 1.478,2.909 -0.617,2.652 -0.617,2.652"
             style="fill:#ffd0bc;fill-opacity:1;fill-rule:nonzero;stroke:none"
             id="path554" /></g><g
           id="g556"
           transform="translate(131.5894,169.6523)"><path
             d="m 0,0 c 0.133,2.266 0.231,5.489 1.579,7.467 1.74,2.552 6.428,2.584 9.068,2.705 3.846,0.177 7.03,-0.176 8.889,-4.26 0.888,-1.95 1.068,-4.497 1.417,-6.59 0.289,-1.738 2.939,-1.025 2.651,0.706 -0.598,3.589 -1.007,8.189 -4.003,10.717 -2.884,2.432 -6.815,2.357 -10.35,2.059 C 6.269,12.552 2.412,12.386 0.157,10.095 -2.279,7.621 -2.551,3.273 -2.743,0.023 -2.847,-1.739 -0.104,-1.758 0,0"
             style="fill:#ff965f;fill-opacity:1;fill-rule:nonzero;stroke:none"
             id="path558" /></g><g
           id="g560"
           transform="translate(109.9737,153.3154)"><path
             d="m 0,0 62.995,-0.533 -0.186,-22.059 c -0.031,-3.58 -2.985,-6.486 -6.563,-6.456 l -49.977,0.423 c -3.579,0.03 -6.486,2.984 -6.456,6.566 z"
             style="fill:#7db4d9;fill-opacity:1;fill-rule:evenodd;stroke:none"
             id="path562" /></g><g
           id="g564"
           transform="translate(174.0987,169.5439)"><path
             d="m 0,0 -0.188,-22.275 c -0.024,-2.716 -2.264,-4.919 -4.98,-4.896 l -54.901,0.465 c -2.781,0.023 -5.037,2.317 -5.014,5.099 l 0.188,22.156 c 0.006,0.749 0.618,1.349 1.366,1.344 L -1.343,1.366 C -0.595,1.36 0.006,0.748 0,0"
             style="fill:#4180a9;fill-opacity:1;fill-rule:evenodd;stroke:none"
             id="path566" /></g><g
           id="g568"
           transform="translate(117.6109,171.3769)"><path
             d="M 0,0 5.865,-0.05 5.541,-38.4 c -0.011,-1.228 -1.339,-2.22 -2.952,-2.206 -1.612,0.013 -2.924,1.028 -2.914,2.255 z"
             style="fill:#ff965f;fill-opacity:1;fill-rule:evenodd;stroke:none"
             id="path570" /></g><g
           id="g572"
           transform="translate(120.3418,147.5791)"><path
             d="M 0,0 C 0.405,-0.003 0.738,0.243 0.74,0.553 0.743,0.859 0.415,1.112 0.01,1.116 -0.394,1.119 -0.725,0.872 -0.728,0.565 -0.73,0.255 -0.403,0.004 0,0"
             style="fill:#214b63;fill-opacity:1;fill-rule:evenodd;stroke:none"
             id="path574" /></g><g
           id="g576"
           transform="translate(120.3692,150.7861)"><path
             d="M 0,0 C 0.405,-0.004 0.737,0.244 0.74,0.553 0.743,0.858 0.415,1.111 0.009,1.115 -0.394,1.118 -0.725,0.871 -0.728,0.565 -0.73,0.257 -0.403,0.003 0,0"
             style="fill:#214b63;fill-opacity:1;fill-rule:evenodd;stroke:none"
             id="path578" /></g><g
           id="g580"
           transform="translate(120.2876,141.164)"><path
             d="M 0,0 C 0.405,-0.003 0.738,0.245 0.74,0.552 0.743,0.859 0.415,1.114 0.009,1.117 -0.394,1.121 -0.725,0.872 -0.728,0.564 -0.73,0.257 -0.403,0.004 0,0"
             style="fill:#214b63;fill-opacity:1;fill-rule:evenodd;stroke:none"
             id="path582" /></g><g
           id="g584"
           transform="translate(120.315,144.3721)"><path
             d="M 0,0 C 0.405,-0.003 0.737,0.243 0.74,0.552 0.743,0.858 0.415,1.113 0.009,1.117 -0.394,1.12 -0.725,0.871 -0.728,0.564 -0.73,0.256 -0.404,0.004 0,0"
             style="fill:#214b63;fill-opacity:1;fill-rule:evenodd;stroke:none"
             id="path586" /></g><g
           id="g588"
           transform="translate(117.7559,154.2607)"><path
             d="m 0,0 -0.036,-4.229 5.287,-0.045 0.036,4.23 z M -0.325,0.681 5.623,0.63 C 5.932,0.628 6.182,0.433 6.18,0.198 L 6.14,-4.531 C 6.138,-4.767 5.883,-4.958 5.576,-4.955 l -5.948,0.05 c -0.309,0.003 -0.56,0.197 -0.558,0.433 l 0.04,4.73 c 0.002,0.235 0.256,0.426 0.565,0.423"
             style="fill:#ea6d30;fill-opacity:1;fill-rule:evenodd;stroke:none"
             id="path590" /></g><g
           id="g592"
           transform="translate(120.8326,153.0068)"><path
             d="m 0,0 c -0.125,-0.071 -0.276,-0.112 -0.446,-0.111 -0.165,0.002 -0.32,0.045 -0.443,0.119 l 0.011,1.209 c 0.001,0.183 0.202,0.334 0.446,0.331 h 0.001 C -0.187,1.546 0.012,1.393 0.01,1.209 Z"
             style="fill:#ea6d30;fill-opacity:1;fill-rule:evenodd;stroke:none"
             id="path594" /></g><g
           id="g596"
           transform="translate(159.7696,171.0205)"><path
             d="M 0,0 5.865,-0.05 5.541,-38.4 c -0.011,-1.228 -1.339,-2.22 -2.952,-2.206 -1.612,0.013 -2.924,1.027 -2.914,2.255 z"
             style="fill:#ff965f;fill-opacity:1;fill-rule:evenodd;stroke:none"
             id="path598" /></g><g
           id="g600"
           transform="translate(162.5005,147.2226)"><path
             d="M 0,0 C 0.405,-0.003 0.738,0.242 0.74,0.553 0.743,0.859 0.415,1.112 0.009,1.115 -0.394,1.119 -0.725,0.871 -0.728,0.564 -0.73,0.255 -0.403,0.004 0,0"
             style="fill:#214b63;fill-opacity:1;fill-rule:evenodd;stroke:none"
             id="path602" /></g><g
           id="g604"
           transform="translate(162.5279,150.4287)"><path
             d="M 0,0 C 0.405,-0.003 0.737,0.245 0.74,0.554 0.743,0.859 0.415,1.112 0.009,1.116 -0.394,1.119 -0.725,0.872 -0.728,0.565 -0.73,0.258 -0.404,0.004 0,0"
             style="fill:#214b63;fill-opacity:1;fill-rule:evenodd;stroke:none"
             id="path606" /></g><g
           id="g608"
           transform="translate(162.4463,140.8076)"><path
             d="M 0,0 C 0.405,-0.003 0.738,0.244 0.74,0.552 0.743,0.859 0.415,1.114 0.009,1.117 -0.394,1.121 -0.725,0.872 -0.728,0.564 -0.73,0.257 -0.403,0.004 0,0"
             style="fill:#214b63;fill-opacity:1;fill-rule:evenodd;stroke:none"
             id="path610" /></g><g
           id="g612"
           transform="translate(162.4732,144.0156)"><path
             d="M 0,0 C 0.405,-0.003 0.738,0.243 0.741,0.552 0.743,0.858 0.415,1.113 0.01,1.116 -0.394,1.12 -0.725,0.87 -0.728,0.564 -0.73,0.256 -0.403,0.004 0,0"
             style="fill:#214b63;fill-opacity:1;fill-rule:evenodd;stroke:none"
             id="path614" /></g><g
           id="g616"
           transform="translate(159.9141,153.9043)"><path
             d="m 0,0 -0.036,-4.229 5.287,-0.045 0.036,4.229 z M -0.324,0.681 5.624,0.63 C 5.932,0.628 6.182,0.433 6.18,0.198 L 6.14,-4.531 C 6.138,-4.767 5.883,-4.958 5.576,-4.955 l -5.947,0.05 c -0.309,0.003 -0.56,0.197 -0.558,0.433 l 0.04,4.73 c 0.002,0.235 0.256,0.426 0.565,0.423"
             style="fill:#ea6d30;fill-opacity:1;fill-rule:evenodd;stroke:none"
             id="path618" /></g><g
           id="g620"
           transform="translate(162.9912,152.6504)"><path
             d="m 0,0 c -0.125,-0.071 -0.276,-0.113 -0.446,-0.111 -0.165,0.001 -0.32,0.045 -0.443,0.118 l 0.011,1.21 c 0.001,0.183 0.202,0.333 0.446,0.331 h 0.001 C -0.187,1.546 0.012,1.393 0.01,1.209 Z"
             style="fill:#ea6d30;fill-opacity:1;fill-rule:evenodd;stroke:none"
             id="path622" /></g><g
           id="g624"
           transform="translate(392.8247,148.7715)"><path
             d="m 0,0 -88.286,0.747 c -0.781,0.006 -1.41,0.646 -1.403,1.428 l 0.073,8.667 c 0.007,0.781 0.646,1.41 1.428,1.403 L 0.098,11.498 C 0.879,11.491 1.508,10.853 1.501,10.07 L 1.428,1.403 C 1.421,0.621 0.782,-0.007 0,0"
             style="fill:#214b63;fill-opacity:1;fill-rule:nonzero;stroke:none"
             id="path626" /></g><g
           id="g628"
           transform="translate(403.1245,226.8164)"><path
             d="m 0,0 -88.285,0.747 c -0.782,0.007 -1.41,0.646 -1.403,1.428 l 0.073,8.667 c 0.006,0.782 0.645,1.41 1.427,1.404 L 0.098,11.499 C 0.88,11.492 1.508,10.853 1.501,10.071 L 1.428,1.404 C 1.422,0.622 0.782,-0.007 0,0"
             style="fill:#214b63;fill-opacity:1;fill-rule:nonzero;stroke:none"
             id="path630" /></g><g
           id="g632"
           transform="translate(398.1499,193.542)"><path
             d="m 0,0 -85.212,0.721 c -1.631,0.013 -2.941,1.347 -2.928,2.977 l 0.091,10.752 c 0.014,1.631 1.347,2.942 2.978,2.928 L 0.141,16.657 C 1.771,16.644 3.082,15.311 3.068,13.68 L 2.978,2.928 C 2.964,1.297 1.631,-0.014 0,0"
             style="fill:#ff965f;fill-opacity:1;fill-rule:nonzero;stroke:none"
             id="path634" /></g><g
           id="g636"
           transform="translate(392.232,176.9336)"><path
             d="m 0,0 -86.623,0.733 c -1.241,0.01 -2.238,1.025 -2.229,2.266 l 0.104,12.163 c 0.01,1.241 1.024,2.238 2.266,2.229 L 0.141,16.657 C 1.382,16.646 2.379,15.632 2.369,14.392 L 2.266,2.229 C 2.255,0.987 1.24,-0.011 0,0"
             style="fill:#4180a9;fill-opacity:1;fill-rule:nonzero;stroke:none"
             id="path638" /></g><g
           id="g640"
           transform="translate(401.7339,160.1953)"><path
             d="m 0,0 -86.631,0.732 c -1.239,0.011 -2.234,1.024 -2.224,2.263 l 0.103,12.17 c 0.011,1.239 1.023,2.235 2.262,2.225 L 0.141,16.657 C 1.38,16.646 2.375,15.634 2.365,14.395 L 2.262,2.224 C 2.252,0.985 1.238,-0.011 0,0"
             style="fill:#7db4d9;fill-opacity:1;fill-rule:nonzero;stroke:none"
             id="path642" /></g><g
           id="g644"
           transform="translate(382.8892,210.3291)"><path
             d="m 0,0 -86.631,0.733 c -1.239,0.011 -2.234,1.024 -2.224,2.263 l 0.103,12.17 c 0.01,1.239 1.023,2.235 2.262,2.225 L 0.141,16.657 C 1.38,16.647 2.375,15.634 2.365,14.396 L 2.262,2.225 C 2.251,0.985 1.238,-0.01 0,0"
             style="fill:#7db4d9;fill-opacity:1;fill-rule:nonzero;stroke:none"
             id="path646" /></g><g
           id="g648"
           transform="translate(309.8433,210.9473)"><path
             d="m 0,0 -7.039,0.06 0.142,16.657 7.038,-0.06 z"
             style="fill:#4180a9;fill-opacity:1;fill-rule:nonzero;stroke:none"
             id="path650" /></g><g
           id="g652"
           transform="translate(323.4527,177.5156)"><path
             d="m 0,0 -7.039,0.06 0.142,16.657 7.039,-0.06 z"
             style="fill:#214b63;fill-opacity:1;fill-rule:nonzero;stroke:none"
             id="path654" /></g><g
           id="g656"
           transform="translate(382.4986,177.0156)"><path
             d="m 0,0 -7.039,0.061 0.142,16.656 7.039,-0.06 z"
             style="fill:#214b63;fill-opacity:1;fill-rule:nonzero;stroke:none"
             id="path658" /></g><g
           id="g660"
           transform="translate(375.9751,210.3877)"><path
             d="m 0,0 -7.039,0.06 0.141,16.657 7.039,-0.06 z"
             style="fill:#4180a9;fill-opacity:1;fill-rule:nonzero;stroke:none"
             id="path662" /></g><g
           id="g664"
           transform="translate(320.937,194.1953)"><path
             d="m 0,0 -1.725,0.015 0.141,16.657 1.725,-0.015 z"
             style="fill:#ea6d30;fill-opacity:1;fill-rule:nonzero;stroke:none"
             id="path666" /></g><g
           id="g668"
           transform="translate(327.6958,194.1377)"><path
             d="m 0,0 -1.725,0.015 0.141,16.657 1.725,-0.015 z"
             style="fill:#ea6d30;fill-opacity:1;fill-rule:nonzero;stroke:none"
             id="path670" /></g><g
           id="g672"
           transform="translate(324.0347,160.8525)"><path
             d="m 0,0 -1.725,0.015 0.141,16.657 1.725,-0.015 z"
             style="fill:#ea6d30;fill-opacity:1;fill-rule:nonzero;stroke:none"
             id="path674" /></g><g
           id="g676"
           transform="translate(330.7935,160.7949)"><path
             d="m 0,0 -1.725,0.015 0.141,16.657 1.725,-0.015 z"
             style="fill:#ea6d30;fill-opacity:1;fill-rule:nonzero;stroke:none"
             id="path678" /></g><g
           id="g680"
           transform="translate(387.812,160.3125)"><path
             d="m 0,0 -1.725,0.015 0.141,16.657 1.725,-0.015 z"
             style="fill:#ea6d30;fill-opacity:1;fill-rule:nonzero;stroke:none"
             id="path682" /></g><g
           id="g684"
           transform="translate(394.5708,160.2558)"><path
             d="m 0,0 -1.725,0.015 0.141,16.657 1.725,-0.015 z"
             style="fill:#ea6d30;fill-opacity:1;fill-rule:nonzero;stroke:none"
             id="path686" /></g><g
           id="g688"
           transform="translate(385.5767,193.6484)"><path
             d="m 0,0 -1.726,0.015 0.142,16.657 1.725,-0.015 z"
             style="fill:#ea6d30;fill-opacity:1;fill-rule:nonzero;stroke:none"
             id="path690" /></g><g
           id="g692"
           transform="translate(392.3355,193.5908)"><path
             d="m 0,0 -1.725,0.015 0.141,16.657 1.725,-0.015 z"
             style="fill:#ea6d30;fill-opacity:1;fill-rule:nonzero;stroke:none"
             id="path694" /></g><g
           id="g696"
           transform="translate(340.3511,301.2354)"><path
             d="m 0,0 c -1.21,-2.554 -1.572,-5.5 -1.018,-8.271 -2.745,1.053 -5.348,2.473 -7.72,4.21 -0.17,0.125 -0.343,0.256 -0.451,0.436 -0.287,0.48 -0.021,1.084 0.213,1.592 0.961,2.075 1.372,4.403 1.181,6.682"
             style="fill:#f4c5b5;fill-opacity:1;fill-rule:nonzero;stroke:none"
             id="path698" /></g><g
           id="g700"
           transform="translate(382.0796,249.7148)"><path
             d="m 0,0 c 1.441,-0.435 2.38,-1.869 2.754,-3.329 0.374,-1.459 0.305,-2.989 0.432,-4.49 0.337,-3.969 2.043,-7.676 3.722,-11.288 l 4.377,-9.416 c 0.361,-0.777 0.724,-1.558 0.96,-2.381 0.604,-2.102 -0.644,-3.836 -1.474,-5.861 3.178,-0.439 7.342,-1.44 10.519,-1.881 1.382,-0.191 2.769,-0.383 4.164,-0.394 1.128,-0.009 2.46,0.698 3.566,0.924 -3.856,1.073 -7.513,2.931 -9.792,6.22 -1.794,2.589 -2.85,5.623 -3.582,8.686 -2.126,8.897 -1.742,18.492 -5.675,26.751"
             style="fill:#4180a9;fill-opacity:1;fill-rule:nonzero;stroke:none"
             id="path702" /></g><g
           id="g704"
           transform="translate(394.2593,216.3642)"><path
             d="m 0,0 c -0.317,-0.757 -0.636,-1.514 -0.954,-2.271 -0.376,-0.893 -0.758,-1.81 -0.83,-2.789 -0.073,-0.979 0.224,-2.05 0.967,-2.608 0.518,-0.389 1.176,-0.479 1.806,-0.503 2.551,-0.096 5.128,0.717 7.634,0.192 0.847,-0.177 1.66,-0.503 2.491,-0.757 3.591,-1.095 7.532,-0.775 10.938,0.887 0.28,0.137 0.573,0.298 0.728,0.586 0.258,0.478 0.02,1.122 -0.384,1.456 -0.405,0.335 -0.926,0.439 -1.424,0.545 -3.101,0.658 -6.378,1.277 -9.218,2.783 -0.185,0.097 -0.57,0.385 -0.769,0.328 C 10.757,-2.218 10.716,-2.379 10.576,-2.586 9.932,-3.534 9.106,-3.632 8.025,-3.704 5,-3.908 2.254,-2.204 0,0"
             style="fill:#214b63;fill-opacity:1;fill-rule:nonzero;stroke:none"
             id="path706" /></g><g
           id="g708"
           transform="translate(352.8618,235.9053)"><path
             d="m 0,0 c 10.416,2.762 20.574,6.498 30.297,11.145 1.898,0.906 4.188,1.841 5.994,0.762 1.607,-0.961 2.019,-3.046 2.6,-4.826 1.529,-4.687 5.116,-8.397 8.847,-11.622 3.731,-3.225 7.769,-6.197 10.703,-10.16 1.383,-1.867 2.527,-4.032 2.584,-6.356 0.011,-0.414 -0.006,-0.854 0.21,-1.207 0.169,-0.272 0.454,-0.448 0.731,-0.611 4.985,-2.944 11.096,-5.061 16.509,-3.004 -0.819,1.356 -2.323,2.106 -3.701,2.886 -3.699,2.093 -7.009,4.872 -9.71,8.155 -1.664,2.023 -3.091,4.226 -4.516,6.423 -5.509,8.499 -11.018,16.998 -16.527,25.497 -0.934,1.441 -1.911,2.925 -3.349,3.863 -2.421,1.578 -5.568,1.275 -8.427,0.86 -10.82,-1.569 -21.53,-3.898 -32.024,-6.964"
             style="fill:#7db4d9;fill-opacity:1;fill-rule:nonzero;stroke:none"
             id="path710" /></g><g
           id="g712"
           transform="translate(413.8003,215.9033)"><path
             d="m 0,0 c -0.365,-0.8 -0.731,-1.599 -1.097,-2.398 -0.431,-0.945 -0.87,-1.913 -0.953,-2.948 -0.083,-1.035 0.261,-2.167 1.115,-2.756 0.597,-0.412 1.354,-0.507 2.079,-0.533 2.934,-0.103 5.899,0.753 8.782,0.197 0.975,-0.188 1.911,-0.534 2.867,-0.802 4.132,-1.16 8.666,-0.825 12.582,0.928 0.323,0.145 0.66,0.315 0.839,0.62 0.296,0.504 0.021,1.185 -0.444,1.539 -0.465,0.353 -1.065,0.464 -1.638,0.576 -3.569,0.698 -7.34,1.353 -10.608,2.948 -0.212,0.104 -0.657,0.407 -0.884,0.347 -0.263,-0.071 -0.31,-0.24 -0.471,-0.459 -0.74,-1.002 -1.69,-1.104 -2.933,-1.18 C 5.755,-4.134 2.594,-2.331 0,0"
             style="fill:#214b63;fill-opacity:1;fill-rule:nonzero;stroke:none"
             id="path714" /></g><g
           id="g716"
           transform="translate(326.0601,263.6416)"><path
             d="m 0,0 c -2.393,-3.938 -3.875,-8.425 -4.3,-13.013 -0.287,-3.098 -0.068,-6.342 1.357,-9.109 2.04,-3.964 6.309,-6.396 10.674,-7.302 4.366,-0.906 8.883,-0.5 13.322,-0.09 2.458,0.228 4.915,0.454 7.372,0.682 -0.248,5.55 -0.456,11.327 1.776,16.415 0.173,0.395 0.317,0.952 -0.051,1.178 -0.157,0.096 -0.355,0.085 -0.539,0.072 -3.182,-0.222 -6.486,-0.021 -9.369,1.345 -2.884,1.365 -5.277,4.079 -5.57,7.256 -0.039,0.424 -0.109,0.95 -0.512,1.091 -0.213,0.074 -0.445,0.004 -0.661,-0.062 -4.13,-1.255 -8.718,-0.938 -12.636,0.874"
             style="fill:#4180a9;fill-opacity:1;fill-rule:nonzero;stroke:none"
             id="path718" /></g><g
           id="g720"
           transform="translate(348.8374,318.3862)"><path
             d="M 0,0 C 0.931,-2.163 1.877,-4.562 1.159,-6.805 0.935,-7.506 0.555,-8.151 0.338,-8.856 c -0.321,-1.042 -0.435,-2.278 -0.013,-3.283 0.199,-0.475 0.278,-0.804 0.519,-1.361 0.205,-0.472 0.161,-1.1 -0.303,-1.323 -0.336,-0.161 -0.74,-0.085 -1.095,-0.199 -0.644,-0.208 -0.924,-0.946 -1.135,-1.59 -0.484,-1.467 -0.861,-2.977 -1.889,-4.13 -0.19,-0.212 -0.626,-0.383 -0.904,-0.441 -0.323,-0.065 -0.645,0.086 -0.939,0.233 -1.389,0.697 -2.777,1.392 -4.167,2.088 -1.354,0.679 -2.732,1.374 -3.829,2.422 -1.655,1.581 -2.527,3.871 -2.664,6.156 -0.138,2.286 0.41,4.57 1.267,6.693"
             style="fill:#ffd0bc;fill-opacity:1;fill-rule:nonzero;stroke:none"
             id="path722" /></g><g
           id="g724"
           transform="translate(330.4722,298.5156)"><path
             d="M 0,0 C 1.924,-1.946 4.385,-3.354 7.037,-4.027 7.634,-4.178 8.295,-4.114 8.704,-4.3 8.836,-4.359 9.13,-5.321 9.285,-5.642 l 5.833,-12.001 c 0.44,-0.904 0.884,-1.825 1.04,-2.818 0.192,-1.219 -0.065,-2.462 -0.385,-3.654 -0.857,-3.197 -2.166,-6.251 -3.471,-9.292 -0.338,-0.789 -0.696,-1.605 -1.337,-2.175 -1.021,-0.906 -2.508,-0.991 -3.872,-1.029 -3.386,-0.095 -6.771,-0.19 -10.156,-0.285 -0.644,-0.019 -1.355,-0.014 -1.838,0.412 -0.356,0.312 -0.51,0.788 -0.643,1.243 -0.934,3.204 -1.516,6.499 -2.096,9.786 -0.261,1.483 -0.524,2.974 -0.549,4.479 -0.033,1.883 0.305,3.751 0.665,5.6 1.06,5.459 2.453,11.157 6.244,15.225 0.225,0.241 0.534,0.497 0.848,0.395"
             style="fill:#ea6d30;fill-opacity:1;fill-rule:nonzero;stroke:none"
             id="path726" /></g><g
           id="g728"
           transform="translate(339.1763,294.2158)"><path
             d="m 0,0 c -0.129,-1.416 -0.2,-3.508 -1.484,-4.117 -1.228,-0.582 -2.665,0.147 -3.74,0.98 -2.333,1.808 -4.199,4.214 -5.37,6.924 0.755,0.318 1.442,0.797 2.001,1.397 C -6.051,2.984 -3.131,1.223 0,0"
             style="fill:#ff965f;fill-opacity:1;fill-rule:nonzero;stroke:none"
             id="path730" /></g><g
           id="g732"
           transform="translate(367.6695,259.8809)"><path
             d="m 0,0 c 1.252,0.231 2.471,0.64 3.609,1.21 0.887,0.444 1.726,0.985 2.642,1.364 1.848,0.762 3.978,0.813 5.859,0.139 1.882,-0.673 3.496,-2.065 4.44,-3.826 -1.214,0.082 -2.409,0.445 -3.465,1.051 C 12.643,0.194 12.202,0.499 11.693,0.552 11.329,0.59 10.964,0.493 10.616,0.377 9.647,0.054 8.731,-0.427 7.916,-1.041 7.415,-1.417 6.937,-1.852 6.348,-2.063 5.687,-2.298 4.96,-2.226 4.263,-2.151 3.285,-2.045 2.309,-1.94 1.332,-1.834"
             style="fill:#ffd0bc;fill-opacity:1;fill-rule:nonzero;stroke:none"
             id="path734" /></g><g
           id="g736"
           transform="translate(332.1861,290.4756)"><path
             d="m 0,0 c 2.3,0.222 3.978,-2.409 5.056,-4.45 2.055,-3.892 2.902,-8.293 4.411,-12.429 1.509,-4.136 3.944,-8.265 7.935,-10.123 1.54,-0.716 3.225,-1.052 4.891,-1.381 2.194,-0.434 4.394,-0.869 6.623,-1.059 1.996,-0.17 4.003,-0.143 6.005,-0.204 0.381,-0.012 0.781,-0.033 1.104,-0.235 0.324,-0.203 0.516,-0.556 0.694,-0.894 0.399,-0.755 0.798,-1.511 1.196,-2.266 0.165,-0.311 0.335,-0.65 0.283,-0.998 -0.052,-0.357 -0.325,-0.637 -0.587,-0.887 -5.33,-5.079 -12.359,-8.625 -19.72,-8.777 -7.362,-0.152 -14.941,3.452 -18.61,9.837 -1.742,3.032 -2.556,6.497 -3.252,9.925 -0.686,3.387 -1.282,6.828 -1.113,10.279 0.139,2.844 0.229,5.552 0.937,8.309 C -3.594,-3.196 -2.134,-0.635 0,0"
             style="fill:#ff965f;fill-opacity:1;fill-rule:nonzero;stroke:none"
             id="path738" /></g><g
           id="g740"
           transform="translate(349.9331,318.0908)"><path
             d="m 0,0 c 1.213,-3.292 0.413,-5.985 -1.154,-7.94 -1.569,-1.956 -3.795,-3.278 -6.091,-4.284 -1.401,-0.614 -2.859,-1.133 -4.14,-1.969 -2.407,-1.571 -3.988,-4.123 -5.265,-6.699 -1.277,-2.576 -2.346,-5.288 -4.079,-7.582 -2.976,-3.939 -7.888,-6.339 -12.825,-6.266 -3.873,0.057 -7.942,1.816 -9.748,5.242 -0.78,1.481 -1.094,3.17 -1.154,4.843 -0.163,4.565 1.577,9.169 4.719,12.484 4.586,4.84 11.637,6.719 16.254,11.53 1.345,1.402 2.454,3.026 3.875,4.352 2.852,2.663 6.968,3.948 10.809,3.262 C -4.957,6.286 -1.503,3.601 0,0"
             style="fill:#214b63;fill-opacity:1;fill-rule:nonzero;stroke:none"
             id="path742" /></g><g
           id="g744"
           transform="translate(366.6929,259.647)"><path
             d="M 0,0 C -0.003,-0.347 0.276,-0.631 0.624,-0.634 0.971,-0.637 1.255,-0.358 1.258,-0.011 1.261,0.336 0.981,0.621 0.635,0.624 0.287,0.626 0.003,0.347 0,0"
             style="fill:#ffffff;fill-opacity:1;fill-rule:nonzero;stroke:none"
             id="path746" /></g><g
           id="g748"
           transform="translate(336.2935,291.8457)"><path
             d="M 0,0 C -0.003,-0.348 0.276,-0.631 0.624,-0.634 0.971,-0.637 1.255,-0.358 1.258,-0.011 1.261,0.336 0.981,0.62 0.635,0.623 0.287,0.626 0.003,0.347 0,0"
             style="fill:#ffffff;fill-opacity:1;fill-rule:nonzero;stroke:none"
             id="path750" /></g><g
           id="g752"
           transform="translate(370.4878,255.352)"><path
             d="m 0,0 c 9.11,1.448 18.221,2.897 27.331,4.345 0.315,0.05 0.481,0.377 0.509,0.657 0.968,9.444 1.935,18.889 2.902,28.333 0.091,0.877 -1.281,0.883 -1.371,0.011 -0.465,-4.54 -0.93,-9.081 -1.395,-13.621 -0.33,-3.217 -0.66,-6.433 -0.989,-9.65 C 26.879,9.019 27.118,5.984 26.475,5.068 27.305,6.251 24.102,5.213 23.104,5.055 20.021,4.564 16.936,4.074 13.852,3.584 9.116,2.831 4.382,2.078 -0.354,1.326 -1.223,1.188 -0.866,-0.138 0,0"
             style="fill:#214b63;fill-opacity:1;fill-rule:nonzero;stroke:none"
             id="path754" /></g><g
           id="g756"
           transform="translate(308.8531,336.1465)"><path
             d="M 0,0 0.266,1.118 0.147,16.14 -6.6,2.751 -6.866,1.631 Z"
             style="fill:#ff965f;fill-opacity:1;fill-rule:nonzero;stroke:none"
             id="path758" /></g><g
           id="g760"
           transform="translate(309.0601,349.0874)"><path
             d="M 0,0 -0.06,3.199 -1.527,0.362 Z"
             style="fill:#214b63;fill-opacity:1;fill-rule:nonzero;stroke:none"
             id="path762" /></g><g
           id="g764"
           transform="translate(290.2251,257.8125)"><path
             d="m 0,0 c -0.453,-1.905 -2.366,-3.082 -4.272,-2.628 -1.906,0.453 -3.082,2.366 -2.629,4.271 l 0.63,2.649 c 0.454,1.906 2.367,3.083 4.272,2.629 1.905,-0.454 3.083,-2.366 2.63,-4.272 z"
             style="fill:#ea6d30;fill-opacity:1;fill-rule:nonzero;stroke:none"
             id="path766" /></g><g
           id="g768"
           transform="translate(291.1968,261.8945)"><path
             d="m 0,0 -6.901,1.643 17.94,75.368 6.901,-1.643 z"
             style="fill:#7db4d9;fill-opacity:1;fill-rule:nonzero;stroke:none"
             id="path770" /></g><g
           id="g772"
           transform="translate(291.1968,261.8945)"><path
             d="m 0,0 -3.328,0.792 17.94,75.369 3.328,-0.793 z"
             style="fill:#4180a9;fill-opacity:1;fill-rule:nonzero;stroke:none"
             id="path774" /></g><g
           id="g776"
           transform="translate(288.7271,262.4824)"><path
             d="M 0,0 -1.717,0.409 16.224,75.777 17.94,75.368 Z"
             style="fill:#214b63;fill-opacity:1;fill-rule:nonzero;stroke:none"
             id="path778" /></g><g
           id="g780"
           transform="translate(290.522,259.0605)"><path
             d="M 0,0 -6.901,1.643 -6.227,4.477 0.675,2.834 Z"
             style="fill:#214b63;fill-opacity:1;fill-rule:nonzero;stroke:none"
             id="path782" /></g><g
           id="g784"
           transform="translate(230.8374,254.3091)"><path
             d="M 0,0 C -0.159,-0.397 -0.387,-0.766 -0.681,-1.094 -1.339,-1.83 -2.246,-2.265 -3.233,-2.32 -5.269,-2.433 -7.018,-0.868 -7.131,1.169 l -0.361,6.506 c -0.009,0.152 0.107,0.281 0.259,0.289 0.151,0.009 0.281,-0.108 0.289,-0.258 l 0.361,-6.507 c 0.096,-1.735 1.585,-3.068 3.32,-2.971 0.841,0.046 1.612,0.417 2.174,1.043 0.562,0.63 0.844,1.437 0.798,2.277 l -0.603,10.89 c -0.073,1.319 -1.208,2.334 -2.529,2.262 -1.32,-0.074 -2.335,-1.208 -2.263,-2.529 L -5.152,2.55 c 0.049,-0.891 0.815,-1.576 1.707,-1.527 0.892,0.05 1.577,0.817 1.527,1.707 l -0.502,9.064 c -0.01,0.152 0.106,0.281 0.258,0.289 0.151,0.009 0.281,-0.108 0.289,-0.259 L -1.371,2.76 C -1.306,1.566 -2.222,0.541 -3.415,0.475 -4.609,0.41 -5.634,1.327 -5.7,2.521 l -0.533,9.62 c -0.089,1.62 1.157,3.016 2.78,3.107 1.623,0.089 3.016,-1.158 3.106,-2.781 L 0.256,1.578 C 0.287,1.03 0.198,0.494 0,0"
             style="fill:#ea6d30;fill-opacity:1;fill-rule:nonzero;stroke:none"
             id="path786" /></g><g
           id="g788"
           transform="translate(278.0279,275.688)"><path
             d="m 0,0 c 7.832,-9.274 6.665,-23.144 -2.611,-30.978 -9.276,-7.834 -23.144,-6.665 -30.978,2.609 -7.833,9.274 -6.666,23.146 2.61,30.979 C -21.703,10.443 -7.834,9.276 0,0"
             style="fill:#ffffff;fill-opacity:1;fill-rule:nonzero;stroke:none"
             id="path790" /></g><g
           id="g792"
           transform="translate(277.8013,275.7466)"><path
             d="m 0,0 c 7.832,-9.274 6.665,-23.143 -2.611,-30.978 -9.276,-7.834 -23.144,-6.665 -30.978,2.61 -7.834,9.274 -6.666,23.145 2.61,30.978 C -21.704,10.443 -7.834,9.276 0,0"
             style="fill:#ffffff;fill-opacity:1;fill-rule:nonzero;stroke:none"
             id="path794" /></g><g
           id="g796"
           transform="translate(255.606,240.2529)"><path
             d="M 0,0 11.249,42.503 C -0.487,45.608 -12.52,38.611 -15.626,26.876 -18.732,15.141 -11.735,3.107 0,0"
             style="fill:#f2f2f2;fill-opacity:1;fill-rule:nonzero;stroke:none"
             id="path798" /></g><g
           id="g800"
           transform="translate(277.6177,246.7305)"><path
             d="m 0,0 -4.938,-4.167 c -0.253,-0.216 -0.258,-0.627 -0.01,-0.922 l 26.933,-32.82 1.405,-1.662 c 1.829,-2.167 4.83,-2.643 6.701,-1.063 1.871,1.58 1.903,4.618 0.073,6.784 L 28.76,-32.187 0.907,-0.143 C 0.66,0.151 0.253,0.215 0,0"
             style="fill:#ea6d30;fill-opacity:1;fill-rule:nonzero;stroke:none"
             id="path802" /></g><g
           id="g804"
           transform="translate(276.7701,274.6255)"><path
             d="m 0,0 c -3.505,4.15 -8.412,6.686 -13.83,7.144 -5.412,0.455 -10.679,-1.224 -14.829,-4.729 -4.15,-3.505 -6.687,-8.416 -7.143,-13.83 -0.456,-5.413 1.222,-10.679 4.728,-14.829 7.237,-8.567 20.092,-9.648 28.659,-2.415 C 6.151,-21.422 7.235,-8.566 0.001,0 Z M -9.57,9.748 C -4.875,8.533 -0.679,5.905 2.515,2.125 V 2.124 c 8.406,-9.953 7.147,-24.89 -2.807,-33.296 -9.953,-8.407 -24.889,-7.148 -33.297,2.804 -4.072,4.822 -6.024,10.94 -5.493,17.23 0.53,6.29 3.478,11.996 8.3,16.068 4.821,4.072 10.94,6.023 17.229,5.493 1.358,-0.114 2.689,-0.341 3.983,-0.675"
             style="fill:#ea6d30;fill-opacity:1;fill-rule:nonzero;stroke:none"
             id="path806" /></g></g></g></g></svg>
